<svg width="16" height="16" viewBox="0 0 16 16" fill="none" xmlns="http://www.w3.org/2000/svg">
<mask id="path-1-inside-1_37_3383" fill="white">
<path d="M0 0H16V16H0V0Z"/>
</mask>
<path d="M16 16V16.5H16.5V16H16ZM0 16V16.5H1V16V15.5H0V16ZM3 16V16.5H5V16V15.5H3V16ZM7 16V16.5H9V16V15.5H7V16ZM11 16V16.5H13V16V15.5H11V16ZM15 16V16.5H16V16V15.5H15V16ZM16 16H16.5V15H16H15.5V16H16ZM16 13H16.5V11H16H15.5V13H16ZM16 9H16.5V7H16H15.5V9H16ZM16 5H16.5V3H16H15.5V5H16ZM16 1H16.5V0H16H15.5V1H16ZM16 16V17H17V16H16ZM0 16V17H1V16V15H0V16ZM3 16V17H5V16V15H3V16ZM7 16V17H9V16V15H7V16ZM11 16V17H13V16V15H11V16ZM15 16V17H16V16V15H15V16ZM16 16H17V15H16H15V16H16ZM16 13H17V11H16H15V13H16ZM16 9H17V7H16H15V9H16ZM16 5H17V3H16H15V5H16ZM16 1H17V0H16H15V1H16Z" fill="#191919" fill-opacity="0.1" mask="url(#path-1-inside-1_37_3383)"/>
</svg>
