<svg width="32" height="32" viewBox="0 0 32 32" fill="none" xmlns="http://www.w3.org/2000/svg">
<path d="M4.39879 4H27.5226C29.1238 4 30.4214 5.33949 30.4214 6.9923V25.0077C30.4214 26.6605 29.1238 28 27.5226 28H4.39879C2.79763 28 1.5 26.6605 1.5 25.0077V6.9923C1.5 5.33949 2.79763 4 4.39879 4Z" fill="white"/>
<path d="M7.35921 19.9401C7.07616 19.9401 6.79139 19.8292 6.57483 19.6056C6.14172 19.1585 6.14172 18.4351 6.57483 17.988L10.1165 14.3321L6.57654 10.678C6.14343 10.2309 6.14343 9.5075 6.57654 9.06041C7.00965 8.61333 7.71218 8.61333 8.14359 9.06041L12.4679 13.5242C12.6759 13.739 12.7919 14.0294 12.7919 14.3339C12.7919 14.6384 12.6759 14.9288 12.4679 15.1436L8.14359 19.6056C7.92703 19.8292 7.64398 19.9401 7.35921 19.9401Z" fill="#111111"/>
<path d="M18.6285 23.2707H11.9033C11.2911 23.2707 10.7949 22.7584 10.7949 22.1265C10.7949 21.4946 11.2911 20.9824 11.9033 20.9824H18.6285C19.2406 20.9824 19.7368 21.4946 19.7368 22.1265C19.7368 22.7584 19.2406 23.2707 18.6285 23.2707Z" fill="#111111"/>
</svg>
