<svg width="24" height="24" viewBox="0 0 24 24" fill="none" xmlns="http://www.w3.org/2000/svg">
<style>path{fill:#191919}@media(prefers-color-scheme:dark){path{fill:#fff}}</style>
<path d="M12 17.5C12.8284 17.5 13.5 16.8284 13.5 16C13.5 15.1716 12.8284 14.5 12 14.5C11.1716 14.5 10.5 15.1716 10.5 16C10.5 16.8284 11.1716 17.5 12 17.5Z"/>
<path fill-rule="evenodd" clip-rule="evenodd" d="M17 9V6C17 3.23858 14.7614 1 12 1C9.23858 1 7 3.23858 7 6V9H3V18C3 20.7614 5.23858 23 8 23H16C18.7614 23 21 20.7614 21 18V9H17ZM5 11H19V18C19 19.6569 17.6569 21 16 21H8C6.34315 21 5 19.6569 5 18V11ZM15 6V9H9V6C9 4.34315 10.3431 3 12 3C13.6569 3 15 4.34315 15 6Z"/>
</svg>
