<svg width="24" height="24" viewBox="0 0 24 24" fill="none" xmlns="http://www.w3.org/2000/svg">
<style>path{fill:#191919}@media(prefers-color-scheme:dark){path{fill:#fff}}</style>
<path fill-rule="evenodd" clip-rule="evenodd" d="M16.0074 1V2C16.0074 2.16293 16.0042 2.3229 15.998 2.47995C16.1112 4.83032 17.0581 6.14195 18.1418 6.90326C19.3563 7.75637 20.876 8.00805 21.9791 7.99981L22.9791 7.99233L22.9792 8.00761L22.9941 8.00773L22.9866 9L22.9941 9.99227L22.9792 9.99238L22.9791 10.0077L21.9791 10.0002C20.876 9.99195 19.3563 10.2436 18.1418 11.0967C17.0581 11.8581 16.1112 13.1697 15.998 15.52C16.0042 15.6771 16.0074 15.8371 16.0074 16V17H13.9866V16C13.9866 15.8371 13.9898 15.6771 13.9961 15.52C13.8828 13.1697 12.936 11.8581 11.8522 11.0967C10.6378 10.2436 9.11807 9.99195 8.01492 10.0002L7.01495 10.0077L7.01484 9.99238L7 9.99227L7.00742 9L7 8.00773L7.01484 8.00761L7.01495 7.99233L8.01492 7.99981C9.11807 8.00805 10.6378 7.75637 11.8522 6.90326C12.936 6.14195 13.8828 4.83032 13.9961 2.47995C13.9898 2.3229 13.9866 2.16293 13.9866 2V1H16.0074ZM16.9922 9.46017C16.2081 10.011 15.5177 10.7373 14.997 11.6693C14.4764 10.7373 13.786 10.011 13.0018 9.46017C12.7576 9.28862 12.5069 9.13583 12.2524 9C12.5069 8.86418 12.7576 8.71138 13.0018 8.53983C13.786 7.98899 14.4764 7.26266 14.997 6.33075C15.5177 7.26266 16.2081 7.98899 16.9922 8.53983C17.2364 8.71138 17.4872 8.86418 17.7416 9C17.4872 9.13583 17.2364 9.28862 16.9922 9.46017Z"/>
<path fill-rule="evenodd" clip-rule="evenodd" d="M11.009 17.0076L11.0015 18L11.009 18.9924L10.9941 18.9925L10.994 19.0076L9.99402 19.0001C9.41766 18.9958 8.64969 19.1302 8.05517 19.5484C7.51953 19.9253 7.00746 20.6105 7.00746 22V23H5.00151V22C5.00151 20.6105 4.48945 19.9253 3.9538 19.5484C3.35928 19.1302 2.59132 18.9958 2.01495 19.0001L1.01498 19.0076L1.01486 18.9925L1 18.9924L1.00743 18L1 17.0076L1.01486 17.0075L1.01498 16.9924L2.01495 16.9999C2.59132 17.0042 3.35928 16.8698 3.9538 16.4516C4.48945 16.0747 5.00151 15.3895 5.00151 14V13H7.00746V14C7.00746 15.3895 7.51953 16.0747 8.05517 16.4516C8.64969 16.8698 9.41766 17.0042 9.99402 16.9999L10.994 16.9924L10.9941 17.0075L11.009 17.0076ZM6.00449 17.2349C5.7739 17.5292 5.51105 17.7835 5.22437 18C5.51105 18.2165 5.7739 18.4708 6.00449 18.7651C6.23508 18.4708 6.49792 18.2165 6.78461 18C6.49792 17.7835 6.23508 17.5292 6.00449 17.2349Z"/>
</svg>
