<svg width="24" height="24" viewBox="0 0 24 24" fill="none" xmlns="http://www.w3.org/2000/svg">
<style>path{fill:#191919}@media(prefers-color-scheme:dark){path{fill:#fff}}</style>
<path fill-rule="evenodd" clip-rule="evenodd" d="M11.5528 1.10557C11.8343 0.96481 12.1657 0.96481 12.4472 1.10557L22.4472 6.10557C22.786 6.27496 23 6.62123 23 7C23 7.37877 22.786 7.72504 22.4472 7.89443L12.4472 12.8944C12.1657 13.0352 11.8343 13.0352 11.5528 12.8944L1.55278 7.89443C1.214 7.72504 1 7.37877 1 7C1 6.62123 1.214 6.27496 1.55278 6.10557L11.5528 1.10557ZM4.23607 7L12 10.882L19.7639 7L12 3.11803L4.23607 7Z"/>
<path d="M1.10579 11.553C1.35278 11.059 1.95345 10.8588 2.44743 11.1058L12.0002 15.8822L21.553 11.1058C22.0469 10.8588 22.6476 11.059 22.8946 11.553C23.1416 12.047 22.9414 12.6476 22.4474 12.8946L12.4474 17.8946C12.1659 18.0354 11.8345 18.0354 11.553 17.8946L1.553 12.8946C1.05902 12.6476 0.858802 12.047 1.10579 11.553Z"/>
<path d="M1.10579 16.553C1.35278 16.059 1.95345 15.8588 2.44743 16.1058L12.0002 20.8822L21.553 16.1058C22.0469 15.8588 22.6476 16.059 22.8946 16.553C23.1416 17.047 22.9414 17.6476 22.4474 17.8946L12.4474 22.8946C12.1659 23.0354 11.8345 23.0354 11.553 22.8946L1.553 17.8946C1.05902 17.6476 0.858802 17.047 1.10579 16.553Z"/>
</svg>
