<svg width="24" height="24" viewBox="0 0 24 24" fill="none" xmlns="http://www.w3.org/2000/svg">
<style>path{fill:#191919}@media(prefers-color-scheme:dark){path{fill:#fff}}</style>
<path d="M19 4H7V2H19C20.6569 2 22 3.34315 22 5V18H20V5C20 4.44771 19.5523 4 19 4Z"/>
<path d="M5.5 12H10.5V10H5.5V12Z"/>
<path d="M12 12H14.5V10H12V12Z"/>
<path fill-rule="evenodd" clip-rule="evenodd" d="M5 6C3.34315 6 2 7.34315 2 9V22H15C16.6569 22 18 20.6569 18 19V6H5ZM4 9C4 8.44772 4.44772 8 5 8H16V19C16 19.5523 15.5523 20 15 20H4V9Z"/>
</svg>
