<svg width="24" height="24" viewBox="0 0 24 24" fill="none" xmlns="http://www.w3.org/2000/svg">
<style>path{fill:#191919}@media(prefers-color-scheme:dark){path{fill:#fff}}</style>
<path fill-rule="evenodd" clip-rule="evenodd" d="M16.5 1.99951C14.0151 1.99951 12 4.01338 12 6.49833C12 8.98328 14.0151 10.9972 16.5 10.9972C18.985 10.9972 21 8.98328 21 6.49833C21 4.01338 18.985 1.99951 16.5 1.99951ZM14 6.49833C14 5.11859 15.119 3.99951 16.5 3.99951C17.881 3.99951 19 5.11859 19 6.49833C19 7.87807 17.881 8.99714 16.5 8.99714C15.119 8.99714 14 7.87807 14 6.49833Z"/>
<path fill-rule="evenodd" clip-rule="evenodd" d="M3 11.4968C3 9.01192 5.01504 6.99805 7.5 6.99805C9.98496 6.99805 12 9.01192 12 11.4968C12 13.9818 9.98496 15.9957 7.5 15.9957C5.01504 15.9957 3 13.9818 3 11.4968ZM7.5 8.99805C6.11897 8.99805 5 10.1171 5 11.4968C5 12.8766 6.11897 13.9957 7.5 13.9957C8.88103 13.9957 9.99998 12.8766 9.99998 11.4968C9.99998 10.1171 8.88103 8.99805 7.5 8.99805Z"/>
<path d="M13.0829 17.1853C13.45 15.3122 14.9201 13.9961 16.4999 13.9961C18.3115 13.9961 19.9867 15.7344 19.9999 17.998L21.9999 17.9863C21.9816 14.8521 19.6276 11.9961 16.4999 11.9961C13.7657 11.9961 11.6303 14.1982 11.1202 16.8006C11.045 17.1844 11.0037 17.5801 11 17.9828L12.9999 18.0015C13.0025 17.7232 13.031 17.4501 13.0829 17.1853Z"/>
<path d="M3.99991 23C4.02103 20.738 5.69216 18.9946 7.49996 18.9946C9.31666 18.9946 10.9867 20.732 10.9999 22.9965L12.9999 22.9848C12.9816 19.8515 10.6342 16.9946 7.49996 16.9946C4.36846 16.9946 2.02911 19.8632 2 22.9813L3.99991 23Z"/>
</svg>
