<svg width="24" height="24" viewBox="0 0 24 24" fill="none" xmlns="http://www.w3.org/2000/svg">
<style>path{fill:#191919}@media(prefers-color-scheme:dark){path{fill:#fff}}</style>
<path fill-rule="evenodd" clip-rule="evenodd" d="M1 6.75C1 5.19554 2.29811 4 3.81818 4H20.1818C21.7019 4 23 5.19554 23 6.75V17.25C23 18.8045 21.7019 20 20.1818 20H3.81818C2.29811 20 1 18.8045 1 17.25V6.75ZM3.81818 6C3.32994 6 3 6.37147 3 6.75V9.25H21V6.75C21 6.37147 20.6701 6 20.1818 6H3.81818ZM21 11.25H3V17.25C3 17.6285 3.32994 18 3.81818 18H20.1818C20.6701 18 21 17.6285 21 17.25V11.25Z"/>
</svg>
