<svg width="24" height="24" viewBox="0 0 24 24" fill="none" xmlns="http://www.w3.org/2000/svg">
<path d="M11.9802 10.934C10.3242 10.934 8.97692 9.58667 8.97692 7.93067C8.97692 6.27503 10.3242 4.92773 11.9802 4.92773C13.6359 4.92773 14.9831 6.27503 14.9831 7.93067C14.9831 9.58667 13.6359 10.934 11.9802 10.934ZM11.9802 6.05273C10.9446 6.05273 10.1019 6.89502 10.1019 7.93067C10.1019 8.96631 10.9446 9.80896 11.9802 9.80896C13.0159 9.80896 13.8581 8.9663 13.8581 7.93067C13.8581 6.89503 13.0159 6.05273 11.9802 6.05273ZM18.0557 17.6547C17.5455 15.5229 16.8402 13.4348 15.1439 12.5951C14.2317 12.152 13.1737 11.9271 12 11.9271C10.8263 11.9271 9.76831 12.152 8.85205 12.5969C7.15979 13.4348 6.45446 15.523 5.94434 17.6547L7.03857 17.9165C7.46374 16.1404 8.07092 14.2394 9.34753 13.6073C10.1056 13.2389 10.998 13.0521 12 13.0521C13.0019 13.0521 13.8944 13.2389 14.6484 13.6055C15.9291 14.2394 16.5362 16.1404 16.9614 17.9165L18.0557 17.6547Z" fill="#191919"/>
<path d="M20.5615 18.403L19.6613 17.7285C22.1871 14.3557 22.1871 9.64472 19.6613 6.27192L20.5615 5.59736C23.385 9.36714 23.385 14.6332 20.5615 18.403ZM4.33906 17.7285C1.81329 14.3557 1.81329 9.64472 4.33906 6.27192L3.4389 5.59736C0.615417 9.36714 0.615417 14.6332 3.4389 18.403L4.33906 17.7285ZM18.403 3.4389C14.6332 0.615417 9.36713 0.615417 5.59735 3.4389L6.27191 4.33905C9.64471 1.81366 14.3557 1.81366 17.7285 4.33905L18.403 3.4389ZM18.403 20.5615L17.7285 19.6613C14.3557 22.1867 9.64472 22.1867 6.27192 19.6613L5.59736 20.5615C7.48225 21.9732 9.7414 22.6793 12.0002 22.6793C14.259 22.6793 16.5181 21.9732 18.403 20.5615Z" fill="#191919"/>
</svg>
