<svg width="24" height="24" viewBox="0 0 24 24" fill="none" xmlns="http://www.w3.org/2000/svg">
<style>path,rect{fill:#191919}@media(prefers-color-scheme:dark){path,rect{fill:#fff}}</style>
<path fill-rule="evenodd" clip-rule="evenodd" d="M4 3C2.89543 3 2 3.89543 2 5V19C2 20.1046 2.89543 21 4 21H16C17.1046 21 18 20.1046 18 19V8.41421L12.5858 3H4ZM4 5H11V9H16V19H4V5ZM13 5.41421L15.5858 8H13V5.41421Z"/>
<rect x="6" y="12" width="8" height="1.5" rx="0.75"/>
<rect x="6" y="15" width="6" height="1.5" rx="0.75"/>
<path d="M20 6V17H22V6H20Z"/>
<path d="M20 19V21H22V19H20Z"/>
</svg>
