<svg width="450" height="32" viewBox="0 0 450 32" fill="none" xmlns="http://www.w3.org/2000/svg">
<path d="M35.0768 20.0987C35.0768 16.6589 37.9306 15.3594 41.523 15.3594H45.0138C45.2685 15.3594 45.3961 15.2318 45.3961 14.9771V14.4422C45.3961 12.5822 43.9949 11.6904 41.9308 11.6904C40.3256 11.6904 39.2301 12.2258 38.6437 13.3723C38.44 13.7801 38.2614 13.9327 37.8285 13.9327H36.3253C35.8414 13.9327 35.6118 13.678 35.6118 13.2957C35.6118 13.1171 35.6628 12.8624 35.8665 12.4295C36.8348 10.4168 38.7203 9.11731 42.2366 9.11731C46.1603 9.11731 48.4791 10.8502 48.4791 14.6463V20.9398C48.4791 21.5768 48.7083 21.7299 49.2433 21.7299H49.2688C49.7782 21.7299 50.0329 21.9846 50.0329 22.4941V23.7681C50.0329 24.2775 49.7782 24.5323 49.2688 24.5323H48.377C46.9244 24.5323 46.1858 24.15 45.727 23.1562C45.6504 22.9776 45.5994 22.927 45.4978 22.927C45.3961 22.927 45.3192 22.978 45.1155 23.1562C43.969 24.1755 42.5419 24.7104 40.6309 24.7104C37.7261 24.7104 35.0768 23.3599 35.0768 20.0987ZM45.3961 18.3659V18.1111C45.3961 17.8564 45.2685 17.7289 45.0138 17.7289H41.1918C39.4083 17.7289 38.1598 18.3914 38.1598 19.9711C38.1598 21.5509 39.4338 22.2134 40.9626 22.2134C43.3324 22.2134 45.3961 20.7353 45.3961 18.3659Z" fill="black"/>
<path d="M51.3072 17.8761V10.0538C51.3072 9.54433 51.5619 9.28961 52.0714 9.28961H53.6256C54.1351 9.28961 54.3898 9.54433 54.3898 10.0538V17.5958C54.3898 20.0418 55.2815 21.8508 57.8296 21.8508C60.5307 21.8508 61.8043 19.7105 61.8043 17.239V10.0533C61.8043 9.54391 62.059 9.28919 62.5684 9.28919H64.1227C64.6321 9.28919 64.8868 9.54391 64.8868 10.0533V23.7618C64.8868 24.2712 64.6321 24.526 64.1227 24.526H62.7215C62.2627 24.526 62.008 24.2968 61.9314 23.8379L61.8039 23.1499C61.7783 22.9968 61.7018 22.9207 61.5746 22.9207C61.473 22.9207 61.3965 22.9717 61.2693 23.0993C60.2245 24.042 58.9505 24.7046 57.065 24.7046C53.0647 24.7046 51.3072 21.8253 51.3072 17.8761Z" fill="black"/>
<path d="M67.7423 20.377V4.93616C67.7423 4.42672 67.9971 4.172 68.5065 4.172H70.0608C70.5702 4.172 70.8249 4.42672 70.8249 4.93616V8.91088C70.8249 9.1656 70.9525 9.29317 71.2072 9.29317H75.7173C76.2267 9.29317 76.4815 9.54789 76.4815 10.0573V11.3313C76.4815 11.8408 76.2267 12.0959 75.7173 12.0959H71.2072C70.9525 12.0959 70.8249 12.2235 70.8249 12.4782V20.0968C70.8249 21.2177 71.3344 21.7276 72.4808 21.7276H76.0226C76.5321 21.7276 76.7868 21.9823 76.7868 22.4918V23.7658C76.7868 24.2752 76.5321 24.5299 76.0226 24.5299H72.3281C69.1431 24.5299 67.7423 23.2563 67.7423 20.377Z" fill="black"/>
<path d="M78.9031 23.7658V4.93616C78.9031 4.42672 79.1578 4.172 79.6672 4.172H81.2215C81.7309 4.172 81.9856 4.42672 81.9856 4.93616V10.8729C81.9856 11.026 82.0873 11.1277 82.2148 11.1277C82.2914 11.1277 82.3675 11.1021 82.5971 10.8984C83.7181 9.87915 84.941 9.11499 87.0052 9.11499C90.9799 9.11499 92.7638 11.9177 92.7638 16.0455V23.7662C92.7638 24.2756 92.509 24.5304 91.9996 24.5304H90.4453C89.9359 24.5304 89.6812 24.2756 89.6812 23.7662V16.1986C89.6812 13.8288 88.7639 11.9688 86.2669 11.9688C83.5913 11.9688 81.9865 14.1345 81.9865 17.1924V23.7662C81.9865 24.2756 81.7317 24.5304 81.2223 24.5304H79.6681C79.1586 24.5304 78.9031 24.2752 78.9031 23.7658Z" fill="black"/>
<path d="M94.6995 14.3628C94.6995 7.45772 97.3747 3.99244 102.165 3.99244C106.955 3.99244 109.63 7.45772 109.63 14.3628C109.63 21.2678 106.955 24.7076 102.165 24.7076C97.3751 24.7076 94.6995 21.2423 94.6995 14.3628ZM98.445 16.6816L105.197 9.19057C105.299 9.063 105.35 8.98687 105.35 8.80828C105.35 8.68071 105.325 8.52804 105.146 8.29842C104.458 7.45772 103.491 6.84622 102.165 6.84622C99.3627 6.84622 97.783 9.39426 97.783 14.3883C97.783 15.1014 97.8085 15.7388 97.9105 16.605C97.936 16.7581 98.0121 16.8598 98.1397 16.8598C98.2163 16.8598 98.3179 16.8343 98.445 16.6816ZM106.548 14.3117C106.548 13.5982 106.522 12.9612 106.42 12.095C106.394 11.9419 106.318 11.8402 106.191 11.8402C106.114 11.8402 106.012 11.8658 105.885 12.0188L99.1327 19.5099C99.031 19.6374 98.98 19.7136 98.98 19.8921C98.98 20.0197 99.0055 20.1724 99.1837 20.4016C99.8717 21.2423 100.84 21.8538 102.165 21.8538C104.968 21.8538 106.548 19.3057 106.548 14.3117Z" fill="black"/>
<path d="M1.68935 13.6673C6.93599 12.8036 11.0479 8.69124 11.912 3.4446L12.3324 0.893214C12.4131 0.399668 12.0078 -0.0357391 11.5088 0.0023225C7.51403 0.311416 3.74928 1.63395 1.67011 2.48636C0.660431 2.90086 0 3.8821 0 4.97417V13.039C0 13.5134 0.424115 13.8743 0.892565 13.7974L1.68935 13.6673Z" fill="black"/>
<path d="M14.4422 3.44423C15.3059 8.69088 19.4183 12.8028 24.6649 13.6669L25.4617 13.7974C25.9301 13.8744 26.3543 13.5134 26.3543 13.0391V4.97423C26.3543 3.88173 25.6938 2.90092 24.6842 2.48642C22.605 1.63234 18.8386 0.311472 14.8454 0.00237818C14.3465 -0.0361017 13.9395 0.398052 14.0219 0.893271L14.4422 3.44423Z" fill="black"/>
<path d="M24.665 16.1959C19.4184 17.0596 15.3065 21.1719 14.4423 26.4186L13.9183 31.3983C13.8702 31.8476 14.3696 32.1642 14.7456 31.9128C14.7494 31.9107 14.7514 31.909 14.7552 31.907C18.0457 29.6877 25.5517 23.8785 26.2946 16.6221C26.331 16.2649 26.0143 15.9734 25.6609 16.0307L24.6663 16.1938L24.665 16.1959Z" fill="black"/>
<path d="M11.9135 26.4136C11.0498 21.167 6.93746 17.055 1.69082 16.1909L0.621329 16.0144C0.30638 15.9625 0.024473 16.2235 0.0550059 16.5423C0.759355 23.8392 8.36917 29.6848 11.6885 31.9079C12.0323 32.1362 12.4869 31.8618 12.443 31.4511L11.9135 26.4136Z" fill="black"/>
<path d="M443.098 9.536C446.433 9.536 449.072 11.363 449.072 16.264V24.5H446.694V16.409C446.694 13.335 445.273 11.711 442.692 11.711C439.908 11.711 438.226 13.77 438.226 17.105V24.5H435.848V9.71H437.907L438.226 11.711C439.096 10.58 440.604 9.536 443.098 9.536Z" fill="black"/>
<path d="M426.364 24.674C422.043 24.674 419.027 21.6 419.027 17.105C419.027 12.61 422.043 9.536 426.364 9.536C430.685 9.536 433.701 12.61 433.701 17.105C433.701 21.6 430.685 24.674 426.364 24.674ZM426.364 22.557C429.293 22.557 431.265 20.266 431.265 17.105C431.265 13.944 429.293 11.653 426.364 11.653C423.435 11.653 421.463 13.944 421.463 17.105C421.463 20.266 423.435 22.557 426.364 22.557Z" fill="black"/>
<path d="M415.711 7.216C414.841 7.216 414.174 6.578 414.174 5.679C414.174 4.78 414.841 4.142 415.711 4.142C416.581 4.142 417.248 4.78 417.248 5.679C417.248 6.578 416.581 7.216 415.711 7.216ZM414.493 24.5V9.71H416.871V24.5H414.493Z" fill="black"/>
<path d="M406.574 20.643V11.885H403.906V9.71H406.574V5.563H408.952V9.71H412.78V11.885H408.952V20.614C408.952 21.861 409.387 22.325 410.663 22.325H413.012V24.5H410.431C407.589 24.5 406.574 23.253 406.574 20.643Z" fill="black"/>
<path d="M403.47 22.325H404.224V24.5H402.919C400.947 24.5 400.28 23.659 400.251 22.209C399.323 23.543 397.844 24.674 395.292 24.674C392.044 24.674 389.84 23.05 389.84 20.353C389.84 17.395 391.899 15.742 395.785 15.742H400.135V14.727C400.135 12.813 398.772 11.653 396.452 11.653C394.364 11.653 392.972 12.639 392.682 14.147H390.304C390.652 11.247 393.001 9.536 396.568 9.536C400.338 9.536 402.513 11.421 402.513 14.872V21.339C402.513 22.122 402.803 22.325 403.47 22.325ZM400.135 18.468V17.743H395.553C393.436 17.743 392.247 18.526 392.247 20.208C392.247 21.658 393.494 22.644 395.466 22.644C398.424 22.644 400.135 20.933 400.135 18.468Z" fill="black"/>
<path d="M376.995 11.885V9.71H388.769V11.508L379.779 22.325H389.146V24.5H376.618V22.702L385.579 11.885H376.995Z" fill="black"/>
<path d="M373.766 7.216C372.896 7.216 372.229 6.578 372.229 5.679C372.229 4.78 372.896 4.142 373.766 4.142C374.636 4.142 375.303 4.78 375.303 5.679C375.303 6.578 374.636 7.216 373.766 7.216ZM372.548 24.5V9.71H374.926V24.5H372.548Z" fill="black"/>
<path d="M370.4 9.71H371.067V12.03H369.878C366.775 12.03 365.934 14.611 365.934 16.96V24.5H363.556V9.71H365.615L365.934 11.943C366.63 10.812 367.761 9.71 370.4 9.71Z" fill="black"/>
<path d="M354.072 24.674C349.751 24.674 346.735 21.6 346.735 17.105C346.735 12.61 349.751 9.536 354.072 9.536C358.393 9.536 361.409 12.61 361.409 17.105C361.409 21.6 358.393 24.674 354.072 24.674ZM354.072 22.557C357.001 22.557 358.973 20.266 358.973 17.105C358.973 13.944 357.001 11.653 354.072 11.653C351.143 11.653 349.171 13.944 349.171 17.105C349.171 20.266 351.143 22.557 354.072 22.557Z" fill="black"/>
<path d="M338.973 9.536C342.279 9.536 344.976 11.363 344.976 16.264V24.5H342.598V16.409C342.598 13.335 341.119 11.711 338.567 11.711C335.812 11.711 334.101 13.77 334.101 17.105V24.5H331.723V4.2H334.101V12.146C334.971 10.754 336.479 9.536 338.973 9.536Z" fill="black"/>
<path d="M323.804 20.643V11.885H321.136V9.71H323.804V5.563H326.182V9.71H330.01V11.885H326.182V20.614C326.182 21.861 326.617 22.325 327.893 22.325H330.242V24.5H327.661C324.819 24.5 323.804 23.253 323.804 20.643Z" fill="black"/>
<path d="M317.606 17.105V9.71H319.984V24.5H317.925L317.606 22.528C316.736 23.63 315.315 24.674 312.879 24.674C309.631 24.674 307.05 22.847 307.05 17.946V9.71H309.428V17.801C309.428 20.875 310.82 22.499 313.285 22.499C315.982 22.499 317.606 20.44 317.606 17.105Z" fill="black"/>
<path d="M290.532 24.5H287.922L295.665 4.2H298.652L306.366 24.5H303.669L301.523 19.019H292.678L290.532 24.5ZM297.086 6.955L293.432 16.728H300.769L297.086 6.955Z" fill="black"/>
<path d="M277.179 11.972V4.2H279.557V24.5H277.498L277.179 22.122C276.193 23.485 274.598 24.674 272.104 24.674C268.015 24.674 264.999 21.919 264.999 17.105C264.999 12.581 268.015 9.536 272.104 9.536C274.598 9.536 276.28 10.551 277.179 11.972ZM272.336 22.557C275.236 22.557 277.208 20.324 277.208 17.163C277.208 13.915 275.236 11.653 272.336 11.653C269.407 11.653 267.435 13.886 267.435 17.105C267.435 20.324 269.407 22.557 272.336 22.557Z" fill="black"/>
<path d="M256.689 24.674C252.252 24.674 249.352 21.629 249.352 17.105C249.352 12.61 252.194 9.536 256.37 9.536C260.546 9.536 263.272 12.175 263.388 16.554C263.388 16.873 263.359 17.221 263.33 17.569H251.846V17.772C251.933 20.585 253.702 22.557 256.515 22.557C258.603 22.557 260.227 21.455 260.72 19.541H263.127C262.547 22.499 260.111 24.674 256.689 24.674ZM251.991 15.597H260.836C260.604 13.045 258.864 11.624 256.399 11.624C254.224 11.624 252.223 13.19 251.991 15.597Z" fill="black"/>
<path d="M241.618 9.536C244.953 9.536 247.592 11.363 247.592 16.264V24.5H245.214V16.409C245.214 13.335 243.793 11.711 241.212 11.711C238.428 11.711 236.746 13.77 236.746 17.105V24.5H234.368V9.71H236.427L236.746 11.711C237.616 10.58 239.124 9.536 241.618 9.536Z" fill="black"/>
<path d="M230.53 7.216C229.66 7.216 228.993 6.578 228.993 5.679C228.993 4.78 229.66 4.142 230.53 4.142C231.4 4.142 232.067 4.78 232.067 5.679C232.067 6.578 231.4 7.216 230.53 7.216ZM229.312 24.5V9.71H231.69V24.5H229.312Z" fill="black"/>
<path d="M227.31 22.325H228.064V24.5H226.759C224.787 24.5 224.12 23.659 224.091 22.209C223.163 23.543 221.684 24.674 219.132 24.674C215.884 24.674 213.68 23.05 213.68 20.353C213.68 17.395 215.739 15.742 219.625 15.742H223.975V14.727C223.975 12.813 222.612 11.653 220.292 11.653C218.204 11.653 216.812 12.639 216.522 14.147H214.144C214.492 11.247 216.841 9.536 220.408 9.536C224.178 9.536 226.353 11.421 226.353 14.872V21.339C226.353 22.122 226.643 22.325 227.31 22.325ZM223.975 18.468V17.743H219.393C217.276 17.743 216.087 18.526 216.087 20.208C216.087 21.658 217.334 22.644 219.306 22.644C222.264 22.644 223.975 20.933 223.975 18.468Z" fill="black"/>
<path d="M212.592 9.71H213.259V12.03H212.07C208.967 12.03 208.126 14.611 208.126 16.96V24.5H205.748V9.71H207.807L208.126 11.943C208.822 10.812 209.953 9.71 212.592 9.71Z" fill="black"/>
<path d="M193.798 24.674C188.172 24.674 184.257 20.498 184.257 14.35C184.257 8.202 188.056 4.026 193.943 4.026C198.438 4.026 201.831 6.636 202.527 10.812H199.83C199.134 7.999 196.959 6.346 193.885 6.346C189.622 6.346 186.838 9.652 186.838 14.35C186.838 19.048 189.622 22.354 193.827 22.354C197.568 22.354 200.265 20.121 200.265 16.525V15.829H194.175V13.509H202.73V24.5H200.555L200.381 21.542C199.453 23.021 197.278 24.674 193.798 24.674Z" fill="black"/>
<path d="M181.729 17.25H172.072V15.249H181.729V17.25Z" fill="black"/>
<path d="M163.242 24.674C158.805 24.674 155.905 21.629 155.905 17.105C155.905 12.61 158.747 9.536 162.923 9.536C167.099 9.536 169.825 12.175 169.941 16.554C169.941 16.873 169.912 17.221 169.883 17.569H158.399V17.772C158.486 20.585 160.255 22.557 163.068 22.557C165.156 22.557 166.78 21.455 167.273 19.541H169.68C169.1 22.499 166.664 24.674 163.242 24.674ZM158.544 15.597H167.389C167.157 13.045 165.417 11.624 162.952 11.624C160.777 11.624 158.776 13.19 158.544 15.597Z" fill="black"/>
<path d="M148.171 9.536C151.506 9.536 154.145 11.363 154.145 16.264V24.5H151.767V16.409C151.767 13.335 150.346 11.711 147.765 11.711C144.981 11.711 143.299 13.77 143.299 17.105V24.5H140.921V9.71H142.98L143.299 11.711C144.169 10.58 145.677 9.536 148.171 9.536Z" fill="black"/>
<path d="M137.083 7.216C136.213 7.216 135.546 6.578 135.546 5.679C135.546 4.78 136.213 4.142 137.083 4.142C137.953 4.142 138.62 4.78 138.62 5.679C138.62 6.578 137.953 7.216 137.083 7.216ZM135.865 24.5V9.71H138.243V24.5H135.865Z" fill="black"/>
<path d="M121.472 24.5V4.2H134.087V6.52H123.995V13.306H132.347V15.626H123.995V24.5H121.472Z" fill="black"/>
</svg>
