<svg width="666" height="150" viewBox="0 0 666 150" fill="none" xmlns="http://www.w3.org/2000/svg">
<g filter="url(#filter0_dd_1_192)">
<rect width="666" height="150" rx="24" fill="white"/>
<path d="M62.0817 55.6191C61.9256 55.6191 62.0211 54.9411 62.1399 54.2537C62.2564 53.5804 62.4358 52.9187 62.6805 52.2803L65.5696 44.7428C65.9355 43.7596 66.4923 43 67.387 43H88.3194C89.2165 43 89.771 43.7596 90.1391 44.7428L93.0283 52.2803C93.2729 52.9187 93.4547 53.5804 93.5689 54.2537C93.6877 54.9411 93.7832 55.6191 93.6271 55.6191" fill="#CFD6F8"/>
<path d="M62.0815 69.4987C61.9254 69.4987 62.021 68.8207 62.1398 68.1333C62.2563 67.46 62.4357 66.7983 62.6803 66.1599L65.5695 58.6224C65.9353 57.6392 66.4922 56.8796 67.3892 56.8796H88.3216C89.2187 56.8796 89.7732 57.6392 90.1413 58.6224L93.0305 66.1599C93.2751 66.7983 93.4569 67.46 93.571 68.1333C93.6899 68.8207 93.7854 69.4987 93.6293 69.4987" fill="#CFD6F8"/>
<path d="M64.3416 67.2037H91.3809C92.6647 67.2037 93.7062 68.2452 93.7062 69.529V74.7901C93.7062 76.0739 92.6647 77.1154 91.3809 77.1154H64.3416C63.0578 77.1154 62.0163 76.0739 62.0163 74.7901V69.529C62.0163 68.2452 63.0578 67.2037 64.3416 67.2037Z" fill="#AAB6F3"/>
<path d="M88.9111 73.2476C89.5558 73.2476 90.0784 72.725 90.0784 72.0803C90.0784 71.4356 89.5558 70.913 88.9111 70.913C88.2664 70.913 87.7438 71.4356 87.7438 72.0803C87.7438 72.725 88.2664 73.2476 88.9111 73.2476Z" fill="#3F59E4"/>
<path d="M64.3416 53.3241H91.3809C92.6647 53.3241 93.7062 54.3656 93.7062 55.6494V60.9105C93.7062 62.1943 92.6647 63.2358 91.3809 63.2358H64.3416C63.0578 63.2358 62.0163 62.1943 62.0163 60.9105V55.6494C62.0163 54.3656 63.0578 53.3241 64.3416 53.3241Z" fill="#AAB6F3"/>
<path d="M88.9111 59.368C89.5558 59.368 90.0784 58.8454 90.0784 58.2007C90.0784 57.556 89.5558 57.0334 88.9111 57.0334C88.2664 57.0334 87.7438 57.556 87.7438 58.2007C87.7438 58.8454 88.2664 59.368 88.9111 59.368Z" fill="#3F59E4"/>
<path d="M77.5922 45.5343C77.397 46.2865 76.4701 46.9656 75.2993 47.1014H75.2871L75.1163 47.1223C75.0065 47.1327 74.9334 47.0805 74.9334 46.9969L75.1163 45.7537C75.1407 45.597 75.2993 45.4612 75.5188 45.3985C75.9457 45.2836 76.714 45.106 77.519 45.0642C77.6166 45.0642 77.6654 45.1374 77.6532 45.1896L77.5922 45.5343Z" fill="#3F59E4"/>
<path d="M80.4096 47.1014C79.2387 46.9656 78.3118 46.2865 78.1166 45.5343H78.1044L78.0434 45.1896C78.0312 45.1374 78.0922 45.0642 78.1898 45.0642C78.9826 45.106 79.7509 45.2836 80.1778 45.3985C80.3974 45.4612 80.5559 45.597 80.5803 45.7537L80.7632 46.9969C80.7754 47.07 80.6901 47.1327 80.5803 47.1223L80.4096 47.1014Z" fill="#3F59E4"/>
<path d="M80.4461 47.4775C78.8362 47.7178 78.08 48.5744 78.1044 50.4026C78.1044 50.5071 78.2264 50.5698 78.324 50.5176C79.1533 50.037 80.8364 48.8669 80.8364 47.5506C80.8263 47.4208 80.6488 47.4487 80.5258 47.468C80.5003 47.472 80.4772 47.4757 80.4583 47.4775H80.4461Z" fill="#3F59E4"/>
<path d="M77.5922 50.4026C77.6166 48.5744 76.8604 47.7178 75.2505 47.4775C75.2316 47.4757 75.2085 47.4721 75.183 47.468C75.06 47.4487 74.8825 47.4208 74.8724 47.5506C74.8724 48.8669 76.5555 50.037 77.3726 50.5176C77.4702 50.5698 77.5922 50.5071 77.5922 50.4026Z" fill="#3F59E4"/>
<path d="M90.1168 39.2233L86.085 42.1531C85.6755 42.4488 85.5061 42.9771 85.6603 43.4574L87.1997 48.1971C87.3565 48.6773 87.8039 49.0034 88.3094 49.0034H93.2917C93.7973 49.0034 94.2447 48.6773 94.4015 48.1971L95.9409 43.4574C96.0976 42.9771 95.9257 42.4513 95.5162 42.1531L91.4869 39.2233C91.0774 38.9276 90.5238 38.9276 90.1168 39.2233Z" fill="#3F59E4"/>
<path d="M63.7668 104H62.7511L65.6886 96H66.6886L69.6261 104H68.6105L66.2199 97.2656H66.1574L63.7668 104ZM64.1418 100.875H68.2355V101.734H64.1418V100.875ZM74.4625 101.547V98H75.3844V104H74.4625V102.984H74.4C74.2594 103.289 74.0406 103.548 73.7437 103.762C73.4469 103.973 73.0719 104.078 72.6187 104.078C72.2437 104.078 71.9104 103.996 71.6187 103.832C71.3271 103.665 71.0979 103.415 70.9312 103.082C70.7646 102.746 70.6812 102.323 70.6812 101.812V98H71.6031V101.75C71.6031 102.187 71.7255 102.536 71.9703 102.797C72.2177 103.057 72.5328 103.187 72.9156 103.187C73.1448 103.187 73.3779 103.129 73.6148 103.012C73.8544 102.895 74.0549 102.715 74.2164 102.473C74.3805 102.23 74.4625 101.922 74.4625 101.547ZM79.6162 98V98.7812H76.5068V98H79.6162ZM77.4131 96.5625H78.335V102.281C78.335 102.542 78.3727 102.737 78.4482 102.867C78.5264 102.995 78.6253 103.081 78.7451 103.125C78.8675 103.167 78.9964 103.187 79.1318 103.187C79.2334 103.187 79.3167 103.182 79.3818 103.172C79.4469 103.159 79.499 103.148 79.5381 103.141L79.7256 103.969C79.6631 103.992 79.5758 104.016 79.4639 104.039C79.3519 104.065 79.21 104.078 79.0381 104.078C78.7777 104.078 78.5225 104.022 78.2725 103.91C78.0251 103.798 77.8193 103.628 77.6553 103.398C77.4938 103.169 77.4131 102.88 77.4131 102.531V96.5625ZM81.9877 100.391V104H81.0658V96H81.9877V98.9375H82.0658C82.2065 98.6276 82.4174 98.3815 82.6986 98.1992C82.9825 98.0143 83.3601 97.9219 83.8315 97.9219C84.2403 97.9219 84.5984 98.0039 84.9057 98.168C85.213 98.3294 85.4513 98.5781 85.6205 98.9141C85.7924 99.2474 85.8783 99.6719 85.8783 100.188V104H84.9565V100.25C84.9565 99.7734 84.8328 99.4049 84.5854 99.1445C84.3406 98.8815 84.0007 98.75 83.5658 98.75C83.2638 98.75 82.9929 98.8138 82.7533 98.9414C82.5164 99.069 82.3289 99.2552 82.1908 99.5C82.0554 99.7448 81.9877 100.042 81.9877 100.391ZM90.0926 104.109C89.5041 104.109 89.0028 103.949 88.5887 103.629C88.1746 103.306 87.8582 102.839 87.6395 102.227C87.4207 101.612 87.3114 100.87 87.3114 100C87.3114 99.1354 87.4207 98.3971 87.6395 97.7852C87.8608 97.1706 88.1785 96.7018 88.5926 96.3789C89.0093 96.0534 89.5093 95.8906 90.0926 95.8906C90.6759 95.8906 91.1746 96.0534 91.5887 96.3789C92.0054 96.7018 92.3231 97.1706 92.5418 97.7852C92.7632 98.3971 92.8739 99.1354 92.8739 100C92.8739 100.87 92.7645 101.612 92.5457 102.227C92.327 102.839 92.0106 103.306 91.5965 103.629C91.1825 103.949 90.6812 104.109 90.0926 104.109ZM90.0926 103.25C90.6759 103.25 91.1291 102.969 91.452 102.406C91.7749 101.844 91.9364 101.042 91.9364 100C91.9364 99.3073 91.8621 98.7174 91.7137 98.2305C91.5679 97.7435 91.3569 97.3724 91.0809 97.1172C90.8075 96.862 90.478 96.7344 90.0926 96.7344C89.5145 96.7344 89.0627 97.0195 88.7371 97.5898C88.4116 98.1576 88.2489 98.9609 88.2489 100C88.2489 100.693 88.3218 101.281 88.4676 101.766C88.6134 102.25 88.8231 102.618 89.0965 102.871C89.3726 103.124 89.7046 103.25 90.0926 103.25Z" fill="#161C29"/>
<path d="M203 77L193 71.2265V82.7735L203 77ZM115 77V78L194 78V77V76L115 76V77Z" fill="black"/>
<path d="M264.231 59.0094H245.984V75.0531H264.231V59.0094Z" fill="#CFD6F8"/>
<path d="M264.25 75.046C266.321 75.046 268 71.4624 268 67.0418C268 62.6213 266.321 59.0377 264.25 59.0377C262.179 59.0377 260.5 62.6213 260.5 67.0418C260.5 71.4624 262.179 75.046 264.25 75.046Z" fill="#CFD6F8"/>
<path d="M251.98 57.0343H245.967V77H251.98V57.0343Z" fill="#3F59E4"/>
<path d="M251.897 76.9977C254.978 76.9977 257.475 72.5287 257.475 67.016C257.475 61.5033 254.978 57.0343 251.897 57.0343C248.817 57.0343 246.32 61.5033 246.32 67.016C246.32 72.5287 248.817 76.9977 251.897 76.9977Z" fill="#3F59E4"/>
<path d="M249 38C247.898 38 247 38.7924 247 39.7657V53H251V39.7657C251 38.7924 250.102 38 249 38Z" fill="#3F59E4"/>
<path d="M245.932 76.9977C249.012 76.9977 251.509 72.5287 251.509 67.016C251.509 61.5033 249.012 57.0343 245.932 57.0343C242.852 57.0343 240.355 61.5033 240.355 67.016C240.355 72.5287 242.852 76.9977 245.932 76.9977Z" fill="#3F59E4"/>
<path d="M245.974 75.0484C248.048 75.0484 249.729 71.4595 249.729 67.0324C249.729 62.6053 248.048 59.0165 245.974 59.0165C243.901 59.0165 242.22 62.6053 242.22 67.0324C242.22 71.4595 243.901 75.0484 245.974 75.0484Z" fill="#CFD6F8"/>
<path d="M245.977 59.0094H231.781V75.0531H245.977V59.0094Z" fill="#CFD6F8"/>
<path d="M231.694 75.0696C233.768 75.0696 235.449 71.4807 235.449 67.0536C235.449 62.6265 233.768 59.0377 231.694 59.0377C229.62 59.0377 227.939 62.6265 227.939 67.0536C227.939 71.4807 229.62 75.0696 231.694 75.0696Z" fill="#AAB6F3"/>
<path d="M211.746 104V96H216.574V96.8594H212.714V99.5625H216.324V100.422H212.714V103.141H216.636V104H211.746ZM223.035 98L220.816 104H219.879L217.66 98H218.66L220.316 102.781H220.379L222.035 98H223.035ZM226.487 104.125C225.909 104.125 225.41 103.997 224.991 103.742C224.574 103.484 224.252 103.125 224.026 102.664C223.802 102.201 223.69 101.661 223.69 101.047C223.69 100.432 223.802 99.8906 224.026 99.4219C224.252 98.9505 224.567 98.5833 224.971 98.3203C225.377 98.0547 225.851 97.9219 226.393 97.9219C226.705 97.9219 227.014 97.974 227.319 98.0781C227.623 98.1823 227.901 98.3516 228.151 98.5859C228.401 98.8177 228.6 99.125 228.748 99.5078C228.897 99.8906 228.971 100.362 228.971 100.922V101.312H224.346V100.516H228.034C228.034 100.177 227.966 99.875 227.83 99.6094C227.698 99.3437 227.507 99.1341 227.26 98.9805C227.015 98.8268 226.726 98.75 226.393 98.75C226.026 98.75 225.708 98.8411 225.44 99.0234C225.174 99.2031 224.97 99.4375 224.826 99.7266C224.683 100.016 224.612 100.326 224.612 100.656V101.188C224.612 101.641 224.69 102.025 224.846 102.34C225.005 102.652 225.225 102.891 225.506 103.055C225.787 103.216 226.114 103.297 226.487 103.297C226.729 103.297 226.948 103.263 227.143 103.195C227.341 103.125 227.511 103.021 227.655 102.883C227.798 102.742 227.909 102.568 227.987 102.359L228.877 102.609C228.784 102.911 228.626 103.177 228.405 103.406C228.183 103.633 227.91 103.81 227.584 103.937C227.259 104.063 226.893 104.125 226.487 104.125ZM231.229 100.391V104H230.307V98H231.198V98.9375H231.276C231.417 98.6328 231.63 98.388 231.917 98.2031C232.203 98.0156 232.573 97.9219 233.026 97.9219C233.432 97.9219 233.788 98.0052 234.093 98.1719C234.397 98.3359 234.634 98.5859 234.803 98.9219C234.973 99.2552 235.057 99.6771 235.057 100.188V104H234.135V100.25C234.135 99.7786 234.013 99.4115 233.768 99.1484C233.524 98.8828 233.188 98.75 232.76 98.75C232.466 98.75 232.203 98.8138 231.971 98.9414C231.742 99.069 231.561 99.2552 231.428 99.5C231.296 99.7448 231.229 100.042 231.229 100.391ZM239.285 98V98.7812H236.176V98H239.285ZM237.082 96.5625H238.004V102.281C238.004 102.542 238.042 102.737 238.117 102.867C238.195 102.995 238.294 103.081 238.414 103.125C238.537 103.167 238.666 103.187 238.801 103.187C238.903 103.187 238.986 103.182 239.051 103.172C239.116 103.159 239.168 103.148 239.207 103.141L239.395 103.969C239.332 103.992 239.245 104.016 239.133 104.039C239.021 104.065 238.879 104.078 238.707 104.078C238.447 104.078 238.192 104.022 237.942 103.91C237.694 103.798 237.488 103.628 237.324 103.398C237.163 103.169 237.082 102.88 237.082 102.531V96.5625ZM248.134 98C248.087 97.6042 247.897 97.2969 247.563 97.0781C247.23 96.8594 246.821 96.75 246.337 96.75C245.983 96.75 245.673 96.8073 245.407 96.9219C245.144 97.0365 244.938 97.194 244.79 97.3945C244.644 97.5951 244.571 97.8229 244.571 98.0781C244.571 98.2917 244.622 98.4753 244.724 98.6289C244.828 98.7799 244.961 98.9062 245.122 99.0078C245.284 99.1068 245.453 99.1888 245.63 99.2539C245.807 99.3164 245.97 99.3672 246.118 99.4062L246.931 99.625C247.139 99.6797 247.371 99.7552 247.626 99.8516C247.884 99.9479 248.13 100.079 248.364 100.246C248.601 100.41 248.797 100.621 248.95 100.879C249.104 101.137 249.181 101.453 249.181 101.828C249.181 102.26 249.067 102.651 248.841 103C248.617 103.349 248.289 103.626 247.856 103.832C247.427 104.038 246.905 104.141 246.29 104.141C245.717 104.141 245.221 104.048 244.802 103.863C244.385 103.678 244.057 103.421 243.817 103.09C243.58 102.759 243.446 102.375 243.415 101.938H244.415C244.441 102.24 244.543 102.49 244.72 102.687C244.899 102.883 245.126 103.029 245.399 103.125C245.675 103.219 245.972 103.266 246.29 103.266C246.66 103.266 246.992 103.206 247.286 103.086C247.58 102.964 247.813 102.794 247.985 102.578C248.157 102.359 248.243 102.104 248.243 101.812C248.243 101.547 248.169 101.331 248.021 101.164C247.872 100.997 247.677 100.862 247.435 100.758C247.192 100.654 246.931 100.562 246.649 100.484L245.665 100.203C245.04 100.023 244.545 99.7669 244.181 99.4336C243.816 99.1003 243.634 98.6641 243.634 98.125C243.634 97.6771 243.755 97.2865 243.997 96.9531C244.242 96.6172 244.57 96.3568 244.981 96.1719C245.396 95.9844 245.858 95.8906 246.368 95.8906C246.884 95.8906 247.342 95.9831 247.743 96.168C248.144 96.3503 248.462 96.6003 248.696 96.918C248.933 97.2357 249.058 97.5964 249.071 98H248.134ZM253.192 98V98.7812H250.082V98H253.192ZM250.989 96.5625H251.911V102.281C251.911 102.542 251.948 102.737 252.024 102.867C252.102 102.995 252.201 103.081 252.321 103.125C252.443 103.167 252.572 103.187 252.707 103.187C252.809 103.187 252.892 103.182 252.957 103.172C253.023 103.159 253.075 103.148 253.114 103.141L253.301 103.969C253.239 103.992 253.151 104.016 253.039 104.039C252.927 104.065 252.786 104.078 252.614 104.078C252.353 104.078 252.098 104.022 251.848 103.91C251.601 103.798 251.395 103.628 251.231 103.398C251.069 103.169 250.989 102.88 250.989 102.531V96.5625ZM254.513 104V98H255.403V98.9062H255.466C255.575 98.6094 255.773 98.3685 256.059 98.1836C256.346 97.9987 256.669 97.9062 257.028 97.9062C257.096 97.9062 257.181 97.9076 257.282 97.9102C257.384 97.9128 257.46 97.9167 257.513 97.9219V98.8594C257.481 98.8516 257.41 98.8398 257.298 98.8242C257.188 98.806 257.072 98.7969 256.95 98.7969C256.658 98.7969 256.398 98.8581 256.169 98.9805C255.942 99.1003 255.763 99.2669 255.63 99.4805C255.5 99.6914 255.434 99.9323 255.434 100.203V104H254.513ZM260.872 104.125C260.294 104.125 259.795 103.997 259.376 103.742C258.96 103.484 258.638 103.125 258.411 102.664C258.187 102.201 258.075 101.661 258.075 101.047C258.075 100.432 258.187 99.8906 258.411 99.4219C258.638 98.9505 258.953 98.5833 259.357 98.3203C259.763 98.0547 260.237 97.9219 260.779 97.9219C261.091 97.9219 261.4 97.974 261.704 98.0781C262.009 98.1823 262.286 98.3516 262.536 98.5859C262.786 98.8177 262.986 99.125 263.134 99.5078C263.282 99.8906 263.357 100.362 263.357 100.922V101.312H258.732V100.516H262.419C262.419 100.177 262.351 99.875 262.216 99.6094C262.083 99.3437 261.893 99.1341 261.646 98.9805C261.401 98.8268 261.112 98.75 260.779 98.75C260.411 98.75 260.094 98.8411 259.825 99.0234C259.56 99.2031 259.355 99.4375 259.212 99.7266C259.069 100.016 258.997 100.326 258.997 100.656V101.188C258.997 101.641 259.075 102.025 259.232 102.34C259.391 102.652 259.611 102.891 259.892 103.055C260.173 103.216 260.5 103.297 260.872 103.297C261.115 103.297 261.333 103.263 261.529 103.195C261.726 103.125 261.897 103.021 262.04 102.883C262.184 102.742 262.294 102.568 262.372 102.359L263.263 102.609C263.169 102.911 263.012 103.177 262.79 103.406C262.569 103.633 262.295 103.81 261.97 103.937C261.644 104.063 261.279 104.125 260.872 104.125ZM266.459 104.141C266.078 104.141 265.733 104.069 265.424 103.926C265.114 103.78 264.868 103.57 264.685 103.297C264.503 103.021 264.412 102.687 264.412 102.297C264.412 101.953 264.479 101.674 264.615 101.461C264.75 101.245 264.931 101.076 265.158 100.953C265.384 100.831 265.634 100.74 265.908 100.68C266.184 100.617 266.461 100.568 266.74 100.531C267.104 100.484 267.4 100.449 267.627 100.426C267.856 100.4 268.022 100.357 268.127 100.297C268.233 100.237 268.287 100.133 268.287 99.9844V99.9531C268.287 99.5677 268.181 99.2682 267.97 99.0547C267.762 98.8411 267.446 98.7344 267.021 98.7344C266.581 98.7344 266.236 98.8307 265.986 99.0234C265.736 99.2161 265.56 99.4219 265.459 99.6406L264.584 99.3281C264.74 98.9635 264.948 98.6797 265.209 98.4766C265.472 98.2708 265.758 98.1276 266.068 98.0469C266.381 97.9635 266.688 97.9219 266.99 97.9219C267.183 97.9219 267.404 97.9453 267.654 97.9922C267.907 98.0365 268.15 98.1289 268.384 98.2695C268.621 98.4102 268.818 98.6224 268.974 98.9062C269.131 99.1901 269.209 99.5703 269.209 100.047V104H268.287V103.187H268.24C268.177 103.318 268.073 103.457 267.927 103.605C267.782 103.754 267.588 103.88 267.345 103.984C267.103 104.089 266.808 104.141 266.459 104.141ZM266.599 103.312C266.964 103.312 267.271 103.241 267.521 103.098C267.774 102.954 267.964 102.77 268.091 102.543C268.222 102.316 268.287 102.078 268.287 101.828V100.984C268.248 101.031 268.162 101.074 268.029 101.113C267.899 101.15 267.748 101.182 267.576 101.211C267.407 101.237 267.241 101.26 267.08 101.281C266.921 101.299 266.792 101.315 266.693 101.328C266.453 101.359 266.229 101.41 266.021 101.48C265.815 101.548 265.649 101.651 265.521 101.789C265.396 101.924 265.334 102.109 265.334 102.344C265.334 102.664 265.452 102.906 265.689 103.07C265.929 103.232 266.232 103.312 266.599 103.312ZM270.825 104V98H271.716V98.9375H271.794C271.919 98.6172 272.121 98.3685 272.399 98.1914C272.678 98.0117 273.013 97.9219 273.403 97.9219C273.799 97.9219 274.129 98.0117 274.392 98.1914C274.657 98.3685 274.864 98.6172 275.013 98.9375H275.075C275.229 98.6276 275.459 98.3815 275.767 98.1992C276.074 98.0143 276.442 97.9219 276.872 97.9219C277.409 97.9219 277.847 98.0898 278.189 98.4258C278.53 98.7591 278.7 99.2786 278.7 99.9844V104H277.778V99.9844C277.778 99.5417 277.657 99.2253 277.415 99.0352C277.173 98.8451 276.888 98.75 276.56 98.75C276.138 98.75 275.811 98.8776 275.579 99.1328C275.347 99.3854 275.232 99.7057 275.232 100.094V104H274.294V99.8906C274.294 99.5495 274.183 99.2747 273.962 99.0664C273.741 98.8555 273.455 98.75 273.107 98.75C272.867 98.75 272.643 98.8138 272.435 98.9414C272.229 99.069 272.062 99.2461 271.935 99.4727C271.81 99.6966 271.747 99.9557 271.747 100.25V104H270.825ZM284.57 99.3437L283.742 99.5781C283.69 99.4401 283.613 99.306 283.511 99.1758C283.412 99.043 283.277 98.9336 283.105 98.8477C282.933 98.7617 282.713 98.7187 282.445 98.7187C282.078 98.7187 281.772 98.8034 281.527 98.9727C281.285 99.1393 281.164 99.3516 281.164 99.6094C281.164 99.8385 281.247 100.02 281.414 100.152C281.58 100.285 281.841 100.396 282.195 100.484L283.085 100.703C283.622 100.833 284.022 101.033 284.285 101.301C284.548 101.566 284.679 101.909 284.679 102.328C284.679 102.672 284.58 102.979 284.382 103.25C284.187 103.521 283.914 103.734 283.562 103.891C283.21 104.047 282.802 104.125 282.335 104.125C281.723 104.125 281.217 103.992 280.816 103.727C280.415 103.461 280.161 103.073 280.054 102.562L280.929 102.344C281.013 102.667 281.17 102.909 281.402 103.07C281.636 103.232 281.942 103.312 282.32 103.312C282.75 103.312 283.091 103.221 283.343 103.039C283.598 102.854 283.726 102.633 283.726 102.375C283.726 102.167 283.653 101.992 283.507 101.852C283.361 101.708 283.138 101.602 282.835 101.531L281.835 101.297C281.286 101.167 280.882 100.965 280.625 100.691C280.369 100.415 280.242 100.07 280.242 99.6562C280.242 99.3177 280.337 99.0182 280.527 98.7578C280.72 98.4974 280.981 98.293 281.312 98.1445C281.645 97.9961 282.023 97.9219 282.445 97.9219C283.039 97.9219 283.505 98.0521 283.843 98.3125C284.184 98.5729 284.427 98.9167 284.57 99.3437Z" fill="#161C29"/>
<path d="M377 77L367 71.2265V82.7735L377 77ZM289 77V78L368 78V77V76L289 76V77Z" fill="black"/>
<g clip-path="url(#clip0_1_192)">
<path d="M412 51.0247V40.9968C412 39.8997 411.102 39 410.006 39H399.994C398.898 39 398 39.8997 398 40.9968V51.0028C398 52.0999 398.898 52.9996 399.994 52.9996H409.984C411.102 53.0215 412 52.1219 412 51.0247Z" fill="#CFD6F8"/>
<path d="M410.722 70.9834C407.923 70.9834 405.683 68.4979 405.963 65.5465C406.222 62.9945 408.504 61.1304 411.002 61.1304H424.805C429.391 61.1304 433.504 57.6907 433.956 52.9639C434.473 47.5714 430.339 43 425.192 43H416.945C415.868 43 414.986 43.9098 414.986 45.0194C414.986 46.129 415.868 47.0388 416.945 47.0388H424.912C427.453 47.0388 429.779 48.9251 430.037 51.5215C430.339 54.5173 428.056 57.0472 425.192 57.0472H411.11C406.566 57.0472 402.496 60.4646 402.044 65.1248C401.527 70.473 405.619 75 410.722 75H419.055C420.132 75 421.015 74.0902 421.015 72.9806C421.015 71.871 420.132 70.9612 419.055 70.9612H410.722V70.9834Z" fill="#3F59E4"/>
<path d="M438.081 77.0314V67.1665C438.081 66.0849 437.177 65.1979 436.076 65.1979H426.005C424.903 65.1979 424 66.0849 424 67.1665V77.0314C424 78.113 424.903 79 426.005 79H436.054C437.178 79 438.081 78.113 438.081 77.0314Z" fill="#AAB6F3"/>
<path d="M381.746 104V96H386.574V96.8594H382.714V99.5625H386.324V100.422H382.714V103.141H386.636V104H381.746ZM393.035 98L390.816 104H389.879L387.66 98H388.66L390.316 102.781H390.379L392.035 98H393.035ZM396.487 104.125C395.909 104.125 395.41 103.997 394.991 103.742C394.574 103.484 394.252 103.125 394.026 102.664C393.802 102.201 393.69 101.661 393.69 101.047C393.69 100.432 393.802 99.8906 394.026 99.4219C394.252 98.9505 394.567 98.5833 394.971 98.3203C395.377 98.0547 395.851 97.9219 396.393 97.9219C396.705 97.9219 397.014 97.974 397.319 98.0781C397.623 98.1823 397.901 98.3516 398.151 98.5859C398.401 98.8177 398.6 99.125 398.748 99.5078C398.897 99.8906 398.971 100.362 398.971 100.922V101.312H394.346V100.516H398.034C398.034 100.177 397.966 99.875 397.83 99.6094C397.698 99.3437 397.507 99.1341 397.26 98.9805C397.015 98.8268 396.726 98.75 396.393 98.75C396.026 98.75 395.708 98.8411 395.44 99.0234C395.174 99.2031 394.97 99.4375 394.826 99.7266C394.683 100.016 394.612 100.326 394.612 100.656V101.188C394.612 101.641 394.69 102.025 394.846 102.34C395.005 102.652 395.225 102.891 395.506 103.055C395.787 103.216 396.114 103.297 396.487 103.297C396.729 103.297 396.948 103.263 397.143 103.195C397.341 103.125 397.511 103.021 397.655 102.883C397.798 102.742 397.909 102.568 397.987 102.359L398.877 102.609C398.784 102.911 398.626 103.177 398.405 103.406C398.183 103.633 397.91 103.81 397.584 103.937C397.259 104.063 396.893 104.125 396.487 104.125ZM401.229 100.391V104H400.307V98H401.198V98.9375H401.276C401.417 98.6328 401.63 98.388 401.917 98.2031C402.203 98.0156 402.573 97.9219 403.026 97.9219C403.432 97.9219 403.788 98.0052 404.093 98.1719C404.397 98.3359 404.634 98.5859 404.803 98.9219C404.973 99.2552 405.057 99.6771 405.057 100.188V104H404.135V100.25C404.135 99.7786 404.013 99.4115 403.768 99.1484C403.524 98.8828 403.188 98.75 402.76 98.75C402.466 98.75 402.203 98.8138 401.971 98.9414C401.742 99.069 401.561 99.2552 401.428 99.5C401.296 99.7448 401.229 100.042 401.229 100.391ZM409.285 98V98.7812H406.176V98H409.285ZM407.082 96.5625H408.004V102.281C408.004 102.542 408.042 102.737 408.117 102.867C408.195 102.995 408.294 103.081 408.414 103.125C408.537 103.167 408.666 103.187 408.801 103.187C408.903 103.187 408.986 103.182 409.051 103.172C409.116 103.159 409.168 103.148 409.207 103.141L409.395 103.969C409.332 103.992 409.245 104.016 409.133 104.039C409.021 104.065 408.879 104.078 408.707 104.078C408.447 104.078 408.192 104.022 407.942 103.91C407.694 103.798 407.488 103.628 407.324 103.398C407.163 103.169 407.082 102.88 407.082 102.531V96.5625ZM418.134 98C418.087 97.6042 417.897 97.2969 417.563 97.0781C417.23 96.8594 416.821 96.75 416.337 96.75C415.983 96.75 415.673 96.8073 415.407 96.9219C415.144 97.0365 414.938 97.194 414.79 97.3945C414.644 97.5951 414.571 97.8229 414.571 98.0781C414.571 98.2917 414.622 98.4753 414.724 98.6289C414.828 98.7799 414.961 98.9062 415.122 99.0078C415.284 99.1068 415.453 99.1888 415.63 99.2539C415.807 99.3164 415.97 99.3672 416.118 99.4062L416.931 99.625C417.139 99.6797 417.371 99.7552 417.626 99.8516C417.884 99.9479 418.13 100.079 418.364 100.246C418.601 100.41 418.797 100.621 418.95 100.879C419.104 101.137 419.181 101.453 419.181 101.828C419.181 102.26 419.067 102.651 418.841 103C418.617 103.349 418.289 103.626 417.856 103.832C417.427 104.038 416.905 104.141 416.29 104.141C415.717 104.141 415.221 104.048 414.802 103.863C414.385 103.678 414.057 103.421 413.817 103.09C413.58 102.759 413.446 102.375 413.415 101.938H414.415C414.441 102.24 414.543 102.49 414.72 102.687C414.899 102.883 415.126 103.029 415.399 103.125C415.675 103.219 415.972 103.266 416.29 103.266C416.66 103.266 416.992 103.206 417.286 103.086C417.58 102.964 417.813 102.794 417.985 102.578C418.157 102.359 418.243 102.104 418.243 101.812C418.243 101.547 418.169 101.331 418.021 101.164C417.872 100.997 417.677 100.862 417.435 100.758C417.192 100.654 416.931 100.562 416.649 100.484L415.665 100.203C415.04 100.023 414.545 99.7669 414.181 99.4336C413.816 99.1003 413.634 98.6641 413.634 98.125C413.634 97.6771 413.755 97.2865 413.997 96.9531C414.242 96.6172 414.57 96.3568 414.981 96.1719C415.396 95.9844 415.858 95.8906 416.368 95.8906C416.884 95.8906 417.342 95.9831 417.743 96.168C418.144 96.3503 418.462 96.6003 418.696 96.918C418.933 97.2357 419.058 97.5964 419.071 98H418.134ZM423.192 98V98.7812H420.082V98H423.192ZM420.989 96.5625H421.911V102.281C421.911 102.542 421.948 102.737 422.024 102.867C422.102 102.995 422.201 103.081 422.321 103.125C422.443 103.167 422.572 103.187 422.707 103.187C422.809 103.187 422.892 103.182 422.957 103.172C423.023 103.159 423.075 103.148 423.114 103.141L423.301 103.969C423.239 103.992 423.151 104.016 423.039 104.039C422.927 104.065 422.786 104.078 422.614 104.078C422.353 104.078 422.098 104.022 421.848 103.91C421.601 103.798 421.395 103.628 421.231 103.398C421.069 103.169 420.989 102.88 420.989 102.531V96.5625ZM424.513 104V98H425.403V98.9062H425.466C425.575 98.6094 425.773 98.3685 426.059 98.1836C426.346 97.9987 426.669 97.9062 427.028 97.9062C427.096 97.9062 427.181 97.9076 427.282 97.9102C427.384 97.9128 427.46 97.9167 427.513 97.9219V98.8594C427.481 98.8516 427.41 98.8398 427.298 98.8242C427.188 98.806 427.072 98.7969 426.95 98.7969C426.658 98.7969 426.398 98.8581 426.169 98.9805C425.942 99.1003 425.763 99.2669 425.63 99.4805C425.5 99.6914 425.434 99.9323 425.434 100.203V104H424.513ZM430.872 104.125C430.294 104.125 429.795 103.997 429.376 103.742C428.96 103.484 428.638 103.125 428.411 102.664C428.187 102.201 428.075 101.661 428.075 101.047C428.075 100.432 428.187 99.8906 428.411 99.4219C428.638 98.9505 428.953 98.5833 429.357 98.3203C429.763 98.0547 430.237 97.9219 430.779 97.9219C431.091 97.9219 431.4 97.974 431.704 98.0781C432.009 98.1823 432.286 98.3516 432.536 98.5859C432.786 98.8177 432.986 99.125 433.134 99.5078C433.282 99.8906 433.357 100.362 433.357 100.922V101.312H428.732V100.516H432.419C432.419 100.177 432.351 99.875 432.216 99.6094C432.083 99.3437 431.893 99.1341 431.646 98.9805C431.401 98.8268 431.112 98.75 430.779 98.75C430.411 98.75 430.094 98.8411 429.825 99.0234C429.56 99.2031 429.355 99.4375 429.212 99.7266C429.069 100.016 428.997 100.326 428.997 100.656V101.188C428.997 101.641 429.075 102.025 429.232 102.34C429.391 102.652 429.611 102.891 429.892 103.055C430.173 103.216 430.5 103.297 430.872 103.297C431.115 103.297 431.333 103.263 431.529 103.195C431.726 103.125 431.897 103.021 432.04 102.883C432.184 102.742 432.294 102.568 432.372 102.359L433.263 102.609C433.169 102.911 433.012 103.177 432.79 103.406C432.569 103.633 432.295 103.81 431.97 103.937C431.644 104.063 431.279 104.125 430.872 104.125ZM436.459 104.141C436.078 104.141 435.733 104.069 435.424 103.926C435.114 103.78 434.868 103.57 434.685 103.297C434.503 103.021 434.412 102.687 434.412 102.297C434.412 101.953 434.479 101.674 434.615 101.461C434.75 101.245 434.931 101.076 435.158 100.953C435.384 100.831 435.634 100.74 435.908 100.68C436.184 100.617 436.461 100.568 436.74 100.531C437.104 100.484 437.4 100.449 437.627 100.426C437.856 100.4 438.022 100.357 438.127 100.297C438.233 100.237 438.287 100.133 438.287 99.9844V99.9531C438.287 99.5677 438.181 99.2682 437.97 99.0547C437.762 98.8411 437.446 98.7344 437.021 98.7344C436.581 98.7344 436.236 98.8307 435.986 99.0234C435.736 99.2161 435.56 99.4219 435.459 99.6406L434.584 99.3281C434.74 98.9635 434.948 98.6797 435.209 98.4766C435.472 98.2708 435.758 98.1276 436.068 98.0469C436.381 97.9635 436.688 97.9219 436.99 97.9219C437.183 97.9219 437.404 97.9453 437.654 97.9922C437.907 98.0365 438.15 98.1289 438.384 98.2695C438.621 98.4102 438.818 98.6224 438.974 98.9062C439.131 99.1901 439.209 99.5703 439.209 100.047V104H438.287V103.187H438.24C438.177 103.318 438.073 103.457 437.927 103.605C437.782 103.754 437.588 103.88 437.345 103.984C437.103 104.089 436.808 104.141 436.459 104.141ZM436.599 103.312C436.964 103.312 437.271 103.241 437.521 103.098C437.774 102.954 437.964 102.77 438.091 102.543C438.222 102.316 438.287 102.078 438.287 101.828V100.984C438.248 101.031 438.162 101.074 438.029 101.113C437.899 101.15 437.748 101.182 437.576 101.211C437.407 101.237 437.241 101.26 437.08 101.281C436.921 101.299 436.792 101.315 436.693 101.328C436.453 101.359 436.229 101.41 436.021 101.48C435.815 101.548 435.649 101.651 435.521 101.789C435.396 101.924 435.334 102.109 435.334 102.344C435.334 102.664 435.452 102.906 435.689 103.07C435.929 103.232 436.232 103.312 436.599 103.312ZM440.825 104V98H441.716V98.9375H441.794C441.919 98.6172 442.121 98.3685 442.399 98.1914C442.678 98.0117 443.013 97.9219 443.403 97.9219C443.799 97.9219 444.129 98.0117 444.392 98.1914C444.657 98.3685 444.864 98.6172 445.013 98.9375H445.075C445.229 98.6276 445.459 98.3815 445.767 98.1992C446.074 98.0143 446.442 97.9219 446.872 97.9219C447.409 97.9219 447.847 98.0898 448.189 98.4258C448.53 98.7591 448.7 99.2786 448.7 99.9844V104H447.778V99.9844C447.778 99.5417 447.657 99.2253 447.415 99.0352C447.173 98.8451 446.888 98.75 446.56 98.75C446.138 98.75 445.811 98.8776 445.579 99.1328C445.347 99.3854 445.232 99.7057 445.232 100.094V104H444.294V99.8906C444.294 99.5495 444.183 99.2747 443.962 99.0664C443.741 98.8555 443.455 98.75 443.107 98.75C442.867 98.75 442.643 98.8138 442.435 98.9414C442.229 99.069 442.062 99.2461 441.935 99.4727C441.81 99.6966 441.747 99.9557 441.747 100.25V104H440.825ZM454.57 99.3437L453.742 99.5781C453.69 99.4401 453.613 99.306 453.511 99.1758C453.412 99.043 453.277 98.9336 453.105 98.8477C452.933 98.7617 452.713 98.7187 452.445 98.7187C452.078 98.7187 451.772 98.8034 451.527 98.9727C451.285 99.1393 451.164 99.3516 451.164 99.6094C451.164 99.8385 451.247 100.02 451.414 100.152C451.58 100.285 451.841 100.396 452.195 100.484L453.085 100.703C453.622 100.833 454.022 101.033 454.285 101.301C454.548 101.566 454.679 101.909 454.679 102.328C454.679 102.672 454.58 102.979 454.382 103.25C454.187 103.521 453.914 103.734 453.562 103.891C453.21 104.047 452.802 104.125 452.335 104.125C451.723 104.125 451.217 103.992 450.816 103.727C450.415 103.461 450.161 103.073 450.054 102.562L450.929 102.344C451.013 102.667 451.17 102.909 451.402 103.07C451.636 103.232 451.942 103.312 452.32 103.312C452.75 103.312 453.091 103.221 453.343 103.039C453.598 102.854 453.726 102.633 453.726 102.375C453.726 102.167 453.653 101.992 453.507 101.852C453.361 101.708 453.138 101.602 452.835 101.531L451.835 101.297C451.286 101.167 450.882 100.965 450.625 100.691C450.369 100.415 450.242 100.07 450.242 99.6562C450.242 99.3177 450.337 99.0182 450.527 98.7578C450.72 98.4974 450.981 98.293 451.312 98.1445C451.645 97.9961 452.023 97.9219 452.445 97.9219C453.039 97.9219 453.505 98.0521 453.843 98.3125C454.184 98.5729 454.427 98.9167 454.57 99.3437ZM402.871 117H401.855L404.792 109H405.792L408.73 117H407.714L405.324 110.266H405.261L402.871 117ZM403.246 113.875H407.339V114.734H403.246V113.875ZM412.223 117.125C411.66 117.125 411.176 116.992 410.769 116.727C410.363 116.461 410.051 116.095 409.832 115.629C409.613 115.163 409.504 114.63 409.504 114.031C409.504 113.422 409.616 112.884 409.84 112.418C410.066 111.949 410.381 111.583 410.785 111.32C411.191 111.055 411.665 110.922 412.207 110.922C412.629 110.922 413.009 111 413.348 111.156C413.686 111.312 413.963 111.531 414.18 111.812C414.396 112.094 414.53 112.422 414.582 112.797H413.66C413.59 112.523 413.433 112.281 413.191 112.07C412.952 111.857 412.629 111.75 412.223 111.75C411.863 111.75 411.548 111.844 411.277 112.031C411.009 112.216 410.799 112.478 410.648 112.816C410.5 113.152 410.426 113.547 410.426 114C410.426 114.464 410.499 114.867 410.644 115.211C410.793 115.555 411.001 115.822 411.269 116.012C411.54 116.202 411.858 116.297 412.223 116.297C412.462 116.297 412.68 116.255 412.875 116.172C413.07 116.089 413.236 115.969 413.371 115.812C413.506 115.656 413.603 115.469 413.66 115.25H414.582C414.53 115.604 414.401 115.923 414.195 116.207C413.992 116.488 413.723 116.712 413.387 116.879C413.053 117.043 412.665 117.125 412.223 117.125ZM418.473 111V111.781H415.364V111H418.473ZM416.27 109.562H417.192V115.281C417.192 115.542 417.229 115.737 417.305 115.867C417.383 115.995 417.482 116.081 417.602 116.125C417.724 116.167 417.853 116.187 417.989 116.187C418.09 116.187 418.173 116.182 418.239 116.172C418.304 116.159 418.356 116.148 418.395 116.141L418.582 116.969C418.52 116.992 418.433 117.016 418.321 117.039C418.209 117.065 418.067 117.078 417.895 117.078C417.634 117.078 417.379 117.022 417.129 116.91C416.882 116.798 416.676 116.628 416.512 116.398C416.351 116.169 416.27 115.88 416.27 115.531V109.562ZM419.794 117V111H420.716V117H419.794ZM420.262 110C420.083 110 419.928 109.939 419.798 109.816C419.67 109.694 419.606 109.547 419.606 109.375C419.606 109.203 419.67 109.056 419.798 108.934C419.928 108.811 420.083 108.75 420.262 108.75C420.442 108.75 420.596 108.811 420.723 108.934C420.854 109.056 420.919 109.203 420.919 109.375C420.919 109.547 420.854 109.694 420.723 109.816C420.596 109.939 420.442 110 420.262 110ZM424.776 117.125C424.234 117.125 423.759 116.996 423.35 116.738C422.943 116.48 422.626 116.12 422.397 115.656C422.17 115.193 422.057 114.651 422.057 114.031C422.057 113.406 422.17 112.861 422.397 112.395C422.626 111.928 422.943 111.566 423.35 111.309C423.759 111.051 424.234 110.922 424.776 110.922C425.317 110.922 425.791 111.051 426.197 111.309C426.606 111.566 426.924 111.928 427.151 112.395C427.38 112.861 427.494 113.406 427.494 114.031C427.494 114.651 427.38 115.193 427.151 115.656C426.924 116.12 426.606 116.48 426.197 116.738C425.791 116.996 425.317 117.125 424.776 117.125ZM424.776 116.297C425.187 116.297 425.526 116.191 425.791 115.98C426.057 115.77 426.253 115.492 426.381 115.148C426.509 114.805 426.572 114.432 426.572 114.031C426.572 113.63 426.509 113.257 426.381 112.91C426.253 112.564 426.057 112.284 425.791 112.07C425.526 111.857 425.187 111.75 424.776 111.75C424.364 111.75 424.026 111.857 423.76 112.07C423.494 112.284 423.298 112.564 423.17 112.91C423.042 113.257 422.979 113.63 422.979 114.031C422.979 114.432 423.042 114.805 423.17 115.148C423.298 115.492 423.494 115.77 423.76 115.98C424.026 116.191 424.364 116.297 424.776 116.297ZM429.757 113.391V117H428.835V111H429.726V111.937H429.804C429.945 111.633 430.158 111.388 430.445 111.203C430.731 111.016 431.101 110.922 431.554 110.922C431.96 110.922 432.316 111.005 432.621 111.172C432.925 111.336 433.162 111.586 433.332 111.922C433.501 112.255 433.585 112.677 433.585 113.188V117H432.664V113.25C432.664 112.779 432.541 112.411 432.296 112.148C432.052 111.883 431.716 111.75 431.289 111.75C430.994 111.75 430.731 111.814 430.5 111.941C430.27 112.069 430.089 112.255 429.957 112.5C429.824 112.745 429.757 113.042 429.757 113.391Z" fill="#161C29"/>
</g>
<path d="M551 77L541 71.2265V82.7735L551 77ZM463 77V78L542 78V77V76L463 76V77Z" fill="black"/>
<path d="M600.004 55.0018H597.485C595.275 46.4484 586.553 41.3019 577.999 43.5127C569.445 45.7235 564.302 54.4478 566.512 63.0011C568.337 70.0685 574.712 75.0053 582.01 75.0001H600.004C605.525 75.0001 610 70.5241 610 65.0022C610 59.4804 605.525 55.0018 600.004 55.0018Z" fill="#CFD6F8"/>
<path d="M568.107 104V96H572.936V96.8594H569.076V99.5625H572.686V100.422H569.076V103.141H572.998V104H568.107ZM575.178 98L576.616 100.453L578.053 98H579.116L577.178 101L579.116 104H578.053L576.616 101.672L575.178 104H574.116L576.022 101L574.116 98H575.178ZM582.974 98V98.7812H579.865V98H582.974ZM580.771 96.5625H581.693V102.281C581.693 102.542 581.731 102.737 581.807 102.867C581.885 102.995 581.984 103.081 582.103 103.125C582.226 103.167 582.355 103.187 582.49 103.187C582.592 103.187 582.675 103.182 582.74 103.172C582.805 103.159 582.857 103.148 582.896 103.141L583.084 103.969C583.021 103.992 582.934 104.016 582.822 104.039C582.71 104.065 582.568 104.078 582.396 104.078C582.136 104.078 581.881 104.022 581.631 103.91C581.383 103.798 581.178 103.628 581.014 103.398C580.852 103.169 580.771 102.88 580.771 102.531V96.5625ZM586.746 104.125C586.168 104.125 585.67 103.997 585.25 103.742C584.834 103.484 584.512 103.125 584.285 102.664C584.061 102.201 583.95 101.661 583.95 101.047C583.95 100.432 584.061 99.8906 584.285 99.4219C584.512 98.9505 584.827 98.5833 585.231 98.3203C585.637 98.0547 586.111 97.9219 586.653 97.9219C586.965 97.9219 587.274 97.974 587.578 98.0781C587.883 98.1823 588.16 98.3516 588.41 98.5859C588.66 98.8177 588.86 99.125 589.008 99.5078C589.157 99.8906 589.231 100.362 589.231 100.922V101.312H584.606V100.516H588.293C588.293 100.177 588.226 99.875 588.09 99.6094C587.957 99.3437 587.767 99.1341 587.52 98.9805C587.275 98.8268 586.986 98.75 586.653 98.75C586.285 98.75 585.968 98.8411 585.7 99.0234C585.434 99.2031 585.229 99.4375 585.086 99.7266C584.943 100.016 584.871 100.326 584.871 100.656V101.188C584.871 101.641 584.95 102.025 585.106 102.34C585.265 102.652 585.485 102.891 585.766 103.055C586.047 103.216 586.374 103.297 586.746 103.297C586.989 103.297 587.207 103.263 587.403 103.195C587.601 103.125 587.771 103.021 587.914 102.883C588.058 102.742 588.168 102.568 588.246 102.359L589.137 102.609C589.043 102.911 588.886 103.177 588.664 103.406C588.443 103.633 588.17 103.81 587.844 103.937C587.519 104.063 587.153 104.125 586.746 104.125ZM590.567 104V98H591.458V98.9062H591.52C591.63 98.6094 591.828 98.3685 592.114 98.1836C592.4 97.9987 592.723 97.9062 593.083 97.9062C593.15 97.9062 593.235 97.9076 593.337 97.9102C593.438 97.9128 593.515 97.9167 593.567 97.9219V98.8594C593.536 98.8516 593.464 98.8398 593.352 98.8242C593.243 98.806 593.127 98.7969 593.005 98.7969C592.713 98.7969 592.453 98.8581 592.223 98.9805C591.997 99.1003 591.817 99.2669 591.684 99.4805C591.554 99.6914 591.489 99.9323 591.489 100.203V104H590.567ZM595.516 100.391V104H594.594V98H595.484V98.9375H595.563C595.703 98.6328 595.917 98.388 596.203 98.2031C596.49 98.0156 596.859 97.9219 597.313 97.9219C597.719 97.9219 598.074 98.0052 598.379 98.1719C598.684 98.3359 598.921 98.5859 599.09 98.9219C599.259 99.2552 599.344 99.6771 599.344 100.188V104H598.422V100.25C598.422 99.7786 598.3 99.4115 598.055 99.1484C597.81 98.8828 597.474 98.75 597.047 98.75C596.753 98.75 596.49 98.8138 596.258 98.9414C596.029 99.069 595.848 99.2552 595.715 99.5C595.582 99.7448 595.516 100.042 595.516 100.391ZM602.728 104.141C602.348 104.141 602.003 104.069 601.693 103.926C601.383 103.78 601.137 103.57 600.955 103.297C600.772 103.021 600.681 102.687 600.681 102.297C600.681 101.953 600.749 101.674 600.884 101.461C601.02 101.245 601.201 101.076 601.427 100.953C601.654 100.831 601.904 100.74 602.177 100.68C602.453 100.617 602.731 100.568 603.009 100.531C603.374 100.484 603.669 100.449 603.896 100.426C604.125 100.4 604.292 100.357 604.396 100.297C604.503 100.237 604.556 100.133 604.556 99.9844V99.9531C604.556 99.5677 604.451 99.2682 604.24 99.0547C604.031 98.8411 603.715 98.7344 603.291 98.7344C602.85 98.7344 602.505 98.8307 602.255 99.0234C602.005 99.2161 601.83 99.4219 601.728 99.6406L600.853 99.3281C601.009 98.9635 601.218 98.6797 601.478 98.4766C601.741 98.2708 602.028 98.1276 602.337 98.0469C602.65 97.9635 602.957 97.9219 603.259 97.9219C603.452 97.9219 603.673 97.9453 603.923 97.9922C604.176 98.0365 604.419 98.1289 604.654 98.2695C604.891 98.4102 605.087 98.6224 605.244 98.9062C605.4 99.1901 605.478 99.5703 605.478 100.047V104H604.556V103.187H604.509C604.447 103.318 604.343 103.457 604.197 103.605C604.051 103.754 603.857 103.88 603.615 103.984C603.373 104.089 603.077 104.141 602.728 104.141ZM602.869 103.312C603.233 103.312 603.541 103.241 603.791 103.098C604.043 102.954 604.233 102.77 604.361 102.543C604.491 102.316 604.556 102.078 604.556 101.828V100.984C604.517 101.031 604.431 101.074 604.298 101.113C604.168 101.15 604.017 101.182 603.845 101.211C603.676 101.237 603.511 101.26 603.349 101.281C603.19 101.299 603.061 101.315 602.962 101.328C602.723 101.359 602.499 101.41 602.291 101.48C602.085 101.548 601.918 101.651 601.791 101.789C601.666 101.924 601.603 102.109 601.603 102.344C601.603 102.664 601.722 102.906 601.959 103.07C602.198 103.232 602.502 103.312 602.869 103.312ZM608.017 96V104H607.095V96H608.017ZM574.055 111C574.009 110.604 573.818 110.297 573.485 110.078C573.152 109.859 572.743 109.75 572.259 109.75C571.904 109.75 571.594 109.807 571.329 109.922C571.066 110.036 570.86 110.194 570.712 110.395C570.566 110.595 570.493 110.823 570.493 111.078C570.493 111.292 570.544 111.475 570.645 111.629C570.749 111.78 570.882 111.906 571.044 112.008C571.205 112.107 571.374 112.189 571.552 112.254C571.729 112.316 571.891 112.367 572.04 112.406L572.852 112.625C573.061 112.68 573.292 112.755 573.548 112.852C573.805 112.948 574.052 113.079 574.286 113.246C574.523 113.41 574.718 113.621 574.872 113.879C575.025 114.137 575.102 114.453 575.102 114.828C575.102 115.26 574.989 115.651 574.762 116C574.538 116.349 574.21 116.626 573.778 116.832C573.348 117.038 572.826 117.141 572.212 117.141C571.639 117.141 571.143 117.048 570.723 116.863C570.307 116.678 569.979 116.421 569.739 116.09C569.502 115.759 569.368 115.375 569.337 114.938H570.337C570.363 115.24 570.464 115.49 570.641 115.687C570.821 115.883 571.048 116.029 571.321 116.125C571.597 116.219 571.894 116.266 572.212 116.266C572.581 116.266 572.913 116.206 573.208 116.086C573.502 115.964 573.735 115.794 573.907 115.578C574.079 115.359 574.165 115.104 574.165 114.812C574.165 114.547 574.091 114.331 573.942 114.164C573.794 113.997 573.598 113.862 573.356 113.758C573.114 113.654 572.852 113.562 572.571 113.484L571.587 113.203C570.962 113.023 570.467 112.767 570.102 112.434C569.738 112.1 569.555 111.664 569.555 111.125C569.555 110.677 569.677 110.286 569.919 109.953C570.163 109.617 570.492 109.357 570.903 109.172C571.317 108.984 571.779 108.891 572.29 108.891C572.805 108.891 573.264 108.983 573.665 109.168C574.066 109.35 574.384 109.6 574.618 109.918C574.855 110.236 574.98 110.596 574.993 111H574.055ZM579.02 117.125C578.442 117.125 577.943 116.997 577.524 116.742C577.107 116.484 576.785 116.125 576.559 115.664C576.335 115.201 576.223 114.661 576.223 114.047C576.223 113.432 576.335 112.891 576.559 112.422C576.785 111.951 577.1 111.583 577.504 111.32C577.91 111.055 578.384 110.922 578.926 110.922C579.238 110.922 579.547 110.974 579.852 111.078C580.156 111.182 580.434 111.352 580.684 111.586C580.934 111.818 581.133 112.125 581.281 112.508C581.43 112.891 581.504 113.362 581.504 113.922V114.312H576.879V113.516H580.567C580.567 113.177 580.499 112.875 580.363 112.609C580.231 112.344 580.041 112.134 579.793 111.98C579.548 111.827 579.259 111.75 578.926 111.75C578.559 111.75 578.241 111.841 577.973 112.023C577.707 112.203 577.503 112.437 577.36 112.727C577.216 113.016 577.145 113.326 577.145 113.656V114.188C577.145 114.641 577.223 115.025 577.379 115.34C577.538 115.652 577.758 115.891 578.039 116.055C578.32 116.216 578.647 116.297 579.02 116.297C579.262 116.297 579.481 116.263 579.676 116.195C579.874 116.125 580.044 116.021 580.188 115.883C580.331 115.742 580.442 115.568 580.52 115.359L581.41 115.609C581.317 115.911 581.159 116.177 580.938 116.406C580.716 116.633 580.443 116.81 580.117 116.937C579.792 117.063 579.426 117.125 579.02 117.125ZM582.84 117V111H583.731V111.906H583.794C583.903 111.609 584.101 111.368 584.387 111.184C584.674 110.999 584.997 110.906 585.356 110.906C585.424 110.906 585.508 110.908 585.61 110.91C585.712 110.913 585.788 110.917 585.84 110.922V111.859C585.809 111.852 585.738 111.84 585.626 111.824C585.516 111.806 585.4 111.797 585.278 111.797C584.986 111.797 584.726 111.858 584.497 111.98C584.27 112.1 584.09 112.267 583.958 112.48C583.827 112.691 583.762 112.932 583.762 113.203V117H582.84ZM591.956 111L589.737 117H588.8L586.581 111H587.581L589.237 115.781H589.3L590.956 111H591.956ZM593.107 117V111H594.029V117H593.107ZM593.576 110C593.396 110 593.241 109.939 593.111 109.816C592.983 109.694 592.919 109.547 592.919 109.375C592.919 109.203 592.983 109.056 593.111 108.934C593.241 108.811 593.396 108.75 593.576 108.75C593.755 108.75 593.909 108.811 594.037 108.934C594.167 109.056 594.232 109.203 594.232 109.375C594.232 109.547 594.167 109.694 594.037 109.816C593.909 109.939 593.755 110 593.576 110ZM598.089 117.125C597.526 117.125 597.042 116.992 596.636 116.727C596.229 116.461 595.917 116.095 595.698 115.629C595.479 115.163 595.37 114.63 595.37 114.031C595.37 113.422 595.482 112.884 595.706 112.418C595.932 111.949 596.248 111.583 596.651 111.32C597.057 111.055 597.531 110.922 598.073 110.922C598.495 110.922 598.875 111 599.214 111.156C599.552 111.312 599.83 111.531 600.046 111.812C600.262 112.094 600.396 112.422 600.448 112.797H599.526C599.456 112.523 599.3 112.281 599.057 112.07C598.818 111.857 598.495 111.75 598.089 111.75C597.729 111.75 597.414 111.844 597.143 112.031C596.875 112.216 596.666 112.478 596.514 112.816C596.366 113.152 596.292 113.547 596.292 114C596.292 114.464 596.365 114.867 596.511 115.211C596.659 115.555 596.867 115.822 597.136 116.012C597.406 116.202 597.724 116.297 598.089 116.297C598.328 116.297 598.546 116.255 598.741 116.172C598.936 116.089 599.102 115.969 599.237 115.812C599.373 115.656 599.469 115.469 599.526 115.25H600.448C600.396 115.604 600.267 115.923 600.061 116.207C599.858 116.488 599.589 116.712 599.253 116.879C598.919 117.043 598.531 117.125 598.089 117.125ZM604.245 117.125C603.667 117.125 603.169 116.997 602.749 116.742C602.333 116.484 602.011 116.125 601.784 115.664C601.56 115.201 601.448 114.661 601.448 114.047C601.448 113.432 601.56 112.891 601.784 112.422C602.011 111.951 602.326 111.583 602.73 111.32C603.136 111.055 603.61 110.922 604.152 110.922C604.464 110.922 604.773 110.974 605.077 111.078C605.382 111.182 605.659 111.352 605.909 111.586C606.159 111.818 606.359 112.125 606.507 112.508C606.656 112.891 606.73 113.362 606.73 113.922V114.312H602.105V113.516H605.792C605.792 113.177 605.725 112.875 605.589 112.609C605.456 112.344 605.266 112.134 605.019 111.98C604.774 111.827 604.485 111.75 604.152 111.75C603.784 111.75 603.467 111.841 603.198 112.023C602.933 112.203 602.728 112.437 602.585 112.727C602.442 113.016 602.37 113.326 602.37 113.656V114.188C602.37 114.641 602.448 115.025 602.605 115.34C602.764 115.652 602.984 115.891 603.265 116.055C603.546 116.216 603.873 116.297 604.245 116.297C604.488 116.297 604.706 116.263 604.902 116.195C605.1 116.125 605.27 116.021 605.413 115.883C605.557 115.742 605.667 115.568 605.745 115.359L606.636 115.609C606.542 115.911 606.385 116.177 606.163 116.406C605.942 116.633 605.669 116.81 605.343 116.937C605.017 117.063 604.652 117.125 604.245 117.125Z" fill="#161C29"/>
</g>
<defs>
<filter id="filter0_dd_1_192" x="-24" y="-8" width="714" height="198" filterUnits="userSpaceOnUse" color-interpolation-filters="sRGB">
<feFlood flood-opacity="0" result="BackgroundImageFix"/>
<feColorMatrix in="SourceAlpha" type="matrix" values="0 0 0 0 0 0 0 0 0 0 0 0 0 0 0 0 0 0 127 0" result="hardAlpha"/>
<feOffset dy="16"/>
<feGaussianBlur stdDeviation="12"/>
<feColorMatrix type="matrix" values="0 0 0 0 0.0862745 0 0 0 0 0.133333 0 0 0 0 0.2 0 0 0 0.08 0"/>
<feBlend mode="normal" in2="BackgroundImageFix" result="effect1_dropShadow_1_192"/>
<feColorMatrix in="SourceAlpha" type="matrix" values="0 0 0 0 0 0 0 0 0 0 0 0 0 0 0 0 0 0 127 0" result="hardAlpha"/>
<feMorphology radius="4" operator="erode" in="SourceAlpha" result="effect2_dropShadow_1_192"/>
<feOffset dy="4"/>
<feGaussianBlur stdDeviation="4"/>
<feColorMatrix type="matrix" values="0 0 0 0 0.0862745 0 0 0 0 0.133333 0 0 0 0 0.2 0 0 0 0.08 0"/>
<feBlend mode="normal" in2="effect1_dropShadow_1_192" result="effect2_dropShadow_1_192"/>
<feBlend mode="normal" in="SourceGraphic" in2="effect2_dropShadow_1_192" result="shape"/>
</filter>
<clipPath id="clip0_1_192">
<rect width="110" height="90" fill="white" transform="translate(363 30)"/>
</clipPath>
</defs>
</svg>
