<svg width="42" height="42" viewBox="0 0 42 42" fill="none" xmlns="http://www.w3.org/2000/svg">
<g clip-path="url(#clip0_243_41)">
<path d="M21.5 8C24.8152 8 27.9946 9.31696 30.3388 11.6612C32.683 14.0054 34 17.1848 34 20.5C34 23.8152 32.683 26.9946 30.3388 29.3388C27.9946 31.683 24.8152 33 21.5 33C18.1848 33 15.0054 31.683 12.6612 29.3388C10.317 26.9946 9 23.8152 9 20.5C9 17.1848 10.317 14.0054 12.6612 11.6612C15.0054 9.31696 18.1848 8 21.5 8ZM20.3281 13.8594V20.5C20.3281 20.8906 20.5234 21.2568 20.8506 21.4766L25.5381 24.6016C26.0752 24.9629 26.8027 24.8164 27.1641 24.2744C27.5254 23.7324 27.3789 23.0098 26.8369 22.6484L22.6719 19.875V13.8594C22.6719 13.21 22.1494 12.6875 21.5 12.6875C20.8506 12.6875 20.3281 13.21 20.3281 13.8594Z" fill="black"/>
</g>
<defs>
<clipPath id="clip0_243_41">
<rect width="25" height="25" fill="white" transform="translate(9 8)"/>
</clipPath>
</defs>
</svg>
