<svg width="42" height="42" viewBox="0 0 42 42" fill="none" xmlns="http://www.w3.org/2000/svg">
<g clip-path="url(#clip0_243_37)">
<path d="M15.2857 6.4375C16.1549 6.4375 16.8571 7.13574 16.8571 8V12.6875H23.1429V8C23.1429 7.13574 23.8451 6.4375 24.7143 6.4375C25.5835 6.4375 26.2857 7.13574 26.2857 8V12.6875H29.4286C30.2978 12.6875 31 13.3857 31 14.25C31 15.1143 30.2978 15.8125 29.4286 15.8125V18.9375C29.4286 23.5811 26.0304 27.4385 21.5714 28.1807V31.4375C21.5714 32.3018 20.8692 33 20 33C19.1308 33 18.4286 32.3018 18.4286 31.4375V28.1807C13.9696 27.4385 10.5714 23.5811 10.5714 18.9375V15.8125C9.70223 15.8125 9 15.1143 9 14.25C9 13.3857 9.70223 12.6875 10.5714 12.6875H13.7143V8C13.7143 7.13574 14.4165 6.4375 15.2857 6.4375Z" fill="black"/>
</g>
<defs>
<clipPath id="clip0_243_37">
<rect width="25" height="25" fill="white" transform="translate(9 8)"/>
</clipPath>
</defs>
</svg>
