<svg width="42" height="42" viewBox="0 0 42 42" fill="none" xmlns="http://www.w3.org/2000/svg">
<g clip-path="url(#clip0_19_616)">
<path d="M31.8355 22.1326L28.5664 20.2194L28.0036 19.9689L14.6291 20.0639V26.9914H31.8355V22.1326Z" fill="white"/>
<path d="M25.8835 26.3543C26.0443 25.795 25.9829 25.2811 25.7163 24.901C25.473 24.5512 25.0604 24.3482 24.5653 24.3245L15.1855 24.1992C15.1242 24.1992 15.0713 24.169 15.0417 24.1215C15.012 24.0761 15.0036 24.0135 15.0184 23.9509C15.048 23.858 15.1411 23.7868 15.2384 23.7803L24.7028 23.655C25.8221 23.601 27.043 22.6746 27.4683 21.5388L28.0099 20.1006C28.0332 20.038 28.0395 19.9753 28.0247 19.9149C27.4154 17.099 24.9546 15 22.0135 15C19.3009 15 16.9989 16.788 16.1758 19.2692C15.6426 18.8654 14.9634 18.6473 14.2334 18.7164C12.93 18.8481 11.8869 19.9149 11.7578 21.2429C11.7282 21.5841 11.7493 21.9188 11.8255 22.2298C9.69906 22.2946 8 24.0675 8 26.2528C8 26.4472 8.01481 26.6415 8.03809 26.8359C8.0529 26.9287 8.12907 27 8.22005 27H25.5322C25.6317 27 25.7227 26.9309 25.7523 26.8294L25.8835 26.3543Z" fill="black"/>
<path d="M28.8711 20.2021C28.7865 20.2021 28.6955 20.2021 28.613 20.2107C28.5516 20.2107 28.4987 20.2582 28.4754 20.3187L28.1094 21.6165C27.9486 22.1758 28.0099 22.6898 28.2765 23.0698C28.5199 23.4197 28.9325 23.6226 29.4276 23.6464L31.425 23.7716C31.4863 23.7716 31.5392 23.8019 31.5688 23.8494C31.5985 23.8969 31.6069 23.966 31.5921 24.02C31.5625 24.1128 31.4694 24.1841 31.3721 24.1906L29.2922 24.3158C28.1644 24.3698 26.952 25.2962 26.5267 26.4299L26.3743 26.8272C26.3447 26.905 26.3976 26.9827 26.4801 26.9827H33.6276C33.7122 26.9827 33.7884 26.9287 33.8096 26.8424C33.9323 26.391 34 25.916 34 25.4279C34 22.5516 31.6979 20.2021 28.8711 20.2021Z" fill="black"/>
</g>
<defs>
<clipPath id="clip0_19_616">
<rect width="26" height="12" fill="white" transform="translate(8 15)"/>
</clipPath>
</defs>
</svg>
