<svg width="42" height="42" viewBox="0 0 42 42" fill="none" xmlns="http://www.w3.org/2000/svg">
<path opacity="0.993" d="M21.39 8.026C21.4587 8.01716 21.5194 8.03449 21.572 8.078C23.506 10.4385 25.326 12.8825 27.032 15.41C28.295 17.3116 29.3697 19.3222 30.256 21.442C31.6715 25.2174 30.9348 28.5021 28.046 31.296C25.5184 33.4323 22.6064 34.2643 19.31 33.792C15.3698 32.9886 12.6918 30.7093 11.276 26.954C10.9072 25.7314 10.7859 24.4834 10.912 23.21C11.122 21.018 11.642 18.9034 12.472 16.866C12.8178 16.0347 13.2685 15.2721 13.824 14.578C14.2772 15.1178 14.7105 15.6724 15.124 16.242C15.3155 16.4421 15.5148 16.6328 15.722 16.814C17.3037 13.6751 19.193 10.7457 21.39 8.026Z" fill="black"/>
<path d="M21.026 12.238C22.934 14.4511 24.6587 16.8084 26.2 19.31C26.6832 20.1377 27.0819 21.0044 27.396 21.91C28.0504 24.4844 27.3484 26.6078 25.29 28.28C23.2992 29.6808 21.1152 30.0968 18.738 29.528C16.1745 28.7325 14.6925 27.0078 14.292 24.354C14.1948 23.5173 14.2815 22.7026 14.552 21.91C14.9377 20.9305 15.4057 19.9945 15.956 19.102C16.476 18.3393 16.996 17.5767 17.516 16.814C18.6972 15.2951 19.8672 13.7698 21.026 12.238Z" fill="white"/>
</svg>
