<svg width="42" height="42" viewBox="0 0 42 42" fill="none" xmlns="http://www.w3.org/2000/svg">
<path d="M7.9375 6.9375V34.0625H35.0625V6.9375H7.9375ZM22.4688 28.0078C22.4688 30.6483 20.9091 31.9355 18.6513 31.9355C16.6121 31.9355 15.4284 30.8796 14.8277 29.605L16.9033 28.3487C17.3035 29.0589 17.6074 29.6595 18.4811 29.6595C19.2077 29.6595 19.8047 29.332 19.8047 28.0575V19.5312H22.4688V28.0078ZM28.4841 31.8749C26.1173 31.8749 24.5879 30.8069 23.8413 29.332L25.9199 28.1289C26.4648 29.0214 27.1763 29.6159 28.4326 29.6159C29.4886 29.6159 30.1019 29.1485 30.1019 28.4201C30.1019 27.5464 29.4704 27.2371 28.3049 26.7248L27.6679 26.4512C25.8285 25.6689 24.6091 24.6856 24.6091 22.6095C24.6091 20.698 26.0652 19.3018 28.3412 19.3018C29.962 19.3018 31.1263 19.8055 31.9649 21.2804L29.9766 22.5586C29.5394 21.7757 29.0684 21.4688 28.3382 21.4688C27.5916 21.4688 27.1181 21.9422 27.1181 22.5586C27.1181 23.3233 27.5916 23.6327 28.6839 24.1062L29.3208 24.3792C31.4878 25.308 32.7078 26.2562 32.7078 28.385C32.7084 30.6797 30.906 31.8749 28.4841 31.8749Z" fill="black"/>
</svg>
