<svg width="42" height="42" viewBox="0 0 42 42" fill="none" xmlns="http://www.w3.org/2000/svg">
<path d="M14.607 14.4106C10.9639 14.4106 8 17.3667 8 21C8 24.6333 10.964 27.5894 14.607 27.5894H27.393C31.0361 27.5894 34 24.6333 34 21C34 17.3667 31.036 14.4106 27.393 14.4106H14.607ZM14.4755 16.5052C15.0096 16.5187 15.5805 16.7756 15.8546 17.1799C16.2525 17.6774 16.3722 18.3356 16.8235 18.7976C17.4306 19.4603 18.1224 20.0439 18.6826 20.7497C19.2126 21.3947 19.5911 22.1512 19.9215 22.9137C20.0563 23.1666 20.0577 23.4772 20.2574 23.6934C20.3557 23.8238 20.8365 24.179 20.7322 24.3049C20.7923 24.4353 21.2416 24.6147 21.0857 24.7412C20.8751 24.7845 20.6384 24.7927 20.4773 24.6248C20.4178 24.7613 20.279 24.6894 20.1719 24.6716C20.1626 24.6981 20.1536 24.7247 20.1448 24.7513C19.7886 24.7751 19.5215 24.4127 19.3518 24.1393C19.0148 23.9573 18.6323 23.8465 18.288 23.6561C18.2683 23.9697 18.337 24.3586 18.0377 24.561C18.0226 25.1639 18.9516 24.6321 19.0368 25.0814C18.9707 25.0887 18.8975 25.0711 18.8446 25.1218C18.602 25.3571 18.3241 24.9436 18.0446 25.1143C17.6693 25.3028 17.632 25.4567 17.1675 25.4956C17.1418 25.4567 17.152 25.4315 17.1739 25.4077C17.3046 25.2562 17.3142 25.0778 17.5374 25.0131C17.3076 24.9769 17.1151 25.1033 16.9215 25.2034C16.6698 25.3063 16.6719 24.9715 16.2847 25.2212C16.2418 25.1863 16.2621 25.1546 16.2866 25.1276C16.385 25.0077 16.5144 24.99 16.6604 24.9967C15.9421 24.5974 15.604 25.485 15.2723 25.0435C15.1726 25.0698 15.1353 25.1592 15.0724 25.2225C15.0183 25.1631 15.0591 25.0912 15.0617 25.0213C14.9969 24.991 14.9148 24.9769 14.934 24.8733C14.8071 24.8305 14.7186 24.9053 14.6242 24.9765C14.5389 24.9106 14.6818 24.8148 14.7082 24.7463C14.7843 24.6145 14.9574 24.7192 15.0452 24.6243C15.2951 24.4826 15.6432 24.7125 15.9287 24.6736C16.1486 24.7012 16.421 24.4759 16.3107 24.2511C16.0755 23.9513 16.1168 23.5592 16.1115 23.2008C16.0824 22.9918 15.5795 22.7261 15.4342 22.5007C15.2544 22.2978 15.1146 22.0623 14.9745 21.831C14.469 20.8551 14.6281 19.6011 13.9912 18.6951C13.703 18.8539 13.3276 18.7789 13.0792 18.5662C12.9451 18.688 12.9392 18.8476 12.9286 19.0169C12.6069 18.6961 12.6477 18.0897 12.9048 17.7326C13.0098 17.5916 13.1352 17.4756 13.2753 17.3734C13.3069 17.3503 13.3177 17.328 13.317 17.2925C13.4442 16.7219 13.9414 16.4918 14.4755 16.5052ZM27.9165 17.0036C28.5205 17.0036 29.0872 17.2375 29.5134 17.6624C29.9396 18.0874 30.1742 18.6532 30.1742 19.2554C30.1742 19.8577 29.9395 20.4232 29.5134 20.8477L28.5362 21.8228C28.2761 22.0825 27.9563 22.2746 27.6049 22.3824L27.5871 22.3875L27.5808 22.4053C27.4683 22.7029 27.2932 22.9729 27.0673 23.197L26.0904 24.1714C25.6642 24.5965 25.097 24.8304 24.493 24.8304C23.889 24.8304 23.3223 24.5964 22.8962 24.1714C22.0154 23.2932 22.0154 21.8646 22.8962 20.9862L23.8732 20.0118C24.1325 19.7524 24.4517 19.561 24.8027 19.4546L24.8211 19.4489L24.8274 19.4317C24.9405 19.1332 25.116 18.8622 25.3422 18.6369L26.3192 17.6624C26.7453 17.2373 27.3127 17.0036 27.9165 17.0036ZM27.9165 17.9748C27.7478 17.9742 27.5807 18.0071 27.4247 18.0715C27.2687 18.1358 27.1271 18.2304 27.0078 18.3498L26.0309 19.3243C25.9004 19.4547 25.7997 19.6118 25.7356 19.7848C25.6715 19.9578 25.6456 20.1426 25.6596 20.3266L25.6654 20.3885C25.7004 20.6758 25.8268 20.935 26.0309 21.1379C26.1717 21.2783 26.327 21.3669 26.5153 21.4289C26.5253 21.4854 26.5304 21.5428 26.5304 21.6003C26.5309 21.7271 26.5062 21.8528 26.4576 21.9701C26.4091 22.0873 26.3378 22.1938 26.2478 22.2832L26.1878 22.3432C25.8614 22.2318 25.5892 22.0691 25.3434 21.8241C25.0184 21.5014 24.8005 21.0866 24.7193 20.6359L24.7086 20.5733L24.6586 20.6131C24.6255 20.6401 24.5938 20.6688 24.5637 20.6991L23.5861 21.6736C23.0853 22.173 23.0853 22.9866 23.5861 23.486C23.8365 23.7357 24.1657 23.8608 24.4955 23.861C24.8251 23.861 25.1538 23.7357 25.4042 23.4859L26.3812 22.5114C26.8821 22.012 26.8821 21.1992 26.3812 20.699C26.2477 20.5658 26.086 20.464 25.9081 20.4012C25.8984 20.3435 25.8933 20.2852 25.893 20.2267C25.893 19.946 26.0038 19.6796 26.2073 19.4767C26.5343 19.5881 26.8248 19.7686 27.0698 20.013C27.3956 20.3378 27.6108 20.7485 27.6934 21.2012L27.7048 21.2638L27.754 21.2234C27.7876 21.1964 27.8197 21.1677 27.8501 21.1373L28.8273 20.1628C29.328 19.6634 29.3287 18.8493 28.8273 18.3498C28.708 18.2303 28.5662 18.1357 28.4101 18.0713C28.254 18.0069 28.0867 17.9741 27.9178 17.9748H27.9165ZM17.1125 23.5612C17.0266 23.8946 16.9983 24.463 16.5636 24.4794C16.5279 24.6718 16.6967 24.7443 16.8513 24.6824C17.004 24.6126 17.0767 24.7375 17.1283 24.862C17.3641 24.8963 17.7126 24.7834 17.7258 24.5047C17.3738 24.3024 17.2651 23.9177 17.1125 23.5612Z" fill="black"/>
</svg>
