<svg width="42" height="42" viewBox="0 0 42 42" fill="none" xmlns="http://www.w3.org/2000/svg">
<path d="M26.2037 27.8297C23.3523 29.0609 20.2632 28.5565 19.0751 28.1504C19.0751 28.4282 19.0621 29.2918 19.0103 30.5231C18.9585 31.7543 18.5567 32.5324 18.3623 32.7676C18.3839 33.5371 18.4012 35.2173 18.2975 35.7816C18.1938 36.3459 17.8222 36.829 17.6494 37H15.8997C16.0552 36.2305 16.6557 35.7388 16.9365 35.5892C17.0921 33.9988 16.7853 32.6179 16.6126 32.1263C16.4397 32.7248 16.0163 34.1142 15.7053 34.8838C15.3942 35.6533 14.9276 36.3588 14.7331 36.6153H13.4371C13.3722 35.8457 13.8043 35.5892 14.0851 35.5892C14.2147 35.3541 14.5258 34.6144 14.7331 33.5371C14.9406 32.4597 14.6468 30.4376 14.4739 29.5611V26.8036C12.4002 25.7134 11.6225 24.6233 11.1041 23.4048C10.6893 22.4301 10.8017 20.9466 10.9096 20.3267C10.78 20.0915 10.4021 19.4939 10.2616 18.6594C10.0672 17.505 10.1752 16.6713 10.2616 16.2224C10.132 16.0942 9.87279 15.4401 9.87279 13.8497C9.87279 12.2593 10.348 11.4342 10.5856 11.2204V10.515C9.67832 10.4509 8.77104 10.0661 8.25264 9.55314C7.73418 9.0401 8.12301 8.27055 8.44705 8.01403C8.77104 7.75751 9.09508 7.9499 9.54875 7.82164C10.0024 7.69338 10.3912 7.56512 10.5856 7.18035C10.7411 6.87258 10.4344 5.59854 10.2616 5C11.0393 5.10261 11.5361 5.76955 11.6873 6.0902V5C12.6594 5.44891 14.4092 6.53911 14.9924 8.91184C15.459 10.81 15.7916 14.7903 15.8996 16.5431C18.3839 16.5645 21.5377 16.1949 24.3892 16.7996C26.9814 17.3493 28.1479 18.467 29.5088 18.467C30.8697 18.467 31.6473 17.6974 32.6195 18.3387C33.5915 18.98 34.11 20.7756 33.9804 22.1223C33.8767 23.1996 33.0299 23.5545 32.6195 23.5972C32.101 25.2902 32.6195 26.9105 32.9434 27.5091V29.9459C33.0947 30.1597 33.3971 30.8181 33.3971 31.7415C33.3971 32.665 33.0947 33.2806 32.9434 33.473C33.2027 34.9094 32.8354 36.3801 32.6195 36.9359H30.8697C31.0771 36.4229 31.4313 36.2946 31.5825 36.2946C31.8936 34.7043 31.669 33.2378 31.5178 32.7034C30.5327 32.1391 29.8976 31.143 29.7032 30.7155C29.7248 31.0789 29.6643 32.0878 29.2496 33.2165C28.8348 34.3451 28.2127 35.012 27.9535 35.2044V36.5511H26.2037C26.2037 35.7303 26.6789 35.5678 26.9166 35.5892C27.219 35.0548 27.9535 34.2425 27.9535 32.6393C27.9535 31.2865 26.9814 30.6513 26.2685 29.4329C25.9298 28.854 26.0957 28.129 26.2037 27.8297Z" fill="black"/>
</svg>
