<svg width="42" height="42" viewBox="0 0 42 42" fill="none" xmlns="http://www.w3.org/2000/svg">
<g clip-path="url(#clip0_19_619)">
<path fill-rule="evenodd" clip-rule="evenodd" d="M24.3227 26.5511C19.6237 26.5511 18.6385 24.4271 18.6385 22.6264C18.6385 22.545 18.6712 22.467 18.7294 22.4094C18.7875 22.3519 18.8664 22.3196 18.9486 22.3196H20.3369C20.4107 22.3198 20.4819 22.3461 20.5379 22.3937C20.5939 22.4413 20.6308 22.507 20.6422 22.5792C20.8521 23.9787 21.4747 24.6843 24.318 24.6843C26.5816 24.6843 27.5429 24.1722 27.5429 22.9922C27.5429 22.3078 27.2686 21.8122 23.7527 21.4605C20.8116 21.1726 18.982 20.533 18.982 18.2037C18.982 16.0608 20.8092 14.784 23.8719 14.784C27.3116 14.784 29.0147 15.964 29.2294 18.5034C29.2328 18.5463 29.2272 18.5895 29.2128 18.6301C29.1984 18.6708 29.1756 18.708 29.1459 18.7394C29.1152 18.7714 29.0782 18.7967 29.0371 18.8137C28.996 18.8308 28.9519 18.8392 28.9073 18.8385H27.5358C27.4661 18.8387 27.3984 18.8154 27.3438 18.7726C27.2892 18.7297 27.2509 18.6697 27.2352 18.6025C26.8989 17.1322 26.0879 16.6602 23.8791 16.6602C21.4079 16.6555 21.1193 17.5075 21.1193 18.1447C21.1193 18.9188 21.458 19.1453 24.7927 19.582C28.1273 20.0186 29.6635 20.6322 29.6635 22.9237C29.6635 25.2153 27.7123 26.5653 24.3084 26.5653L24.3227 26.5511ZM21.0048 35C20.6096 35.0002 20.2214 34.8977 19.8789 34.7026L16.3009 32.6022C15.7642 32.3049 16.0266 32.201 16.2031 32.1302C16.7722 31.9533 17.317 31.7076 17.8251 31.3986C17.8676 31.3789 17.9144 31.3703 17.9612 31.3736C18.008 31.3769 18.0531 31.392 18.0923 31.4175L20.8473 33.0341C20.8989 33.0608 20.9562 33.0747 21.0143 33.0747C21.0725 33.0747 21.1298 33.0608 21.1813 33.0341L31.9152 26.898C31.9655 26.8682 32.0071 26.826 32.0359 26.7756C32.0648 26.7251 32.0799 26.6681 32.0798 26.6101V14.3616C32.08 14.3027 32.0647 14.2447 32.0354 14.1934C32.0062 14.1421 31.9639 14.0992 31.9128 14.0689L21.1789 7.93286C21.1286 7.90384 21.0714 7.88854 21.0131 7.88854C20.9549 7.88854 20.8977 7.90384 20.8473 7.93286L10.1134 14.0689C10.0619 14.0983 10.0191 14.1407 9.9894 14.1916C9.95967 14.2426 9.94402 14.3004 9.94403 14.3592V26.6313C9.94389 26.6893 9.95927 26.7462 9.9886 26.7964C10.0179 26.8466 10.0602 26.8881 10.111 26.9169L13.0521 28.5972C14.6431 29.3784 15.633 28.4462 15.633 27.5116V15.4071C15.6327 15.3665 15.6406 15.3263 15.6562 15.2887C15.6718 15.2512 15.6949 15.2172 15.724 15.1886C15.7531 15.16 15.7877 15.1374 15.8257 15.1223C15.8638 15.1071 15.9045 15.0996 15.9455 15.1003H17.3027C17.3436 15.0999 17.384 15.1077 17.4218 15.123C17.4596 15.1383 17.4939 15.1609 17.5227 15.1894C17.5516 15.218 17.5744 15.2519 17.5899 15.2893C17.6054 15.3266 17.6132 15.3667 17.6128 15.4071V27.5164C17.6128 29.6239 16.4512 30.8204 14.4332 30.8204C13.813 30.8204 13.3216 30.8204 11.9572 30.1549L9.12587 28.5595C8.78348 28.362 8.49937 28.0792 8.30183 27.7392C8.1043 27.3993 8.00023 27.014 8 26.6219V14.3498C7.99927 13.9575 8.10293 13.5719 8.30056 13.2317C8.49819 12.8916 8.78283 12.609 9.12587 12.4122L19.8765 6.27612C20.223 6.08919 20.6113 5.99123 21.006 5.99123C21.4006 5.99123 21.7889 6.08919 22.1354 6.27612L32.8694 12.4122C33.2147 12.6097 33.5012 12.8941 33.6997 13.2364C33.8983 13.5787 34.0019 13.9669 34 14.3616V26.6337C33.999 27.0257 33.8947 27.4106 33.6972 27.7505C33.4997 28.0903 33.216 28.3732 32.8741 28.5713L22.1402 34.7074C21.7961 34.9027 21.4062 35.0052 21.0095 35.0047L21.0048 35Z" fill="black"/>
</g>
<defs>
<clipPath id="clip0_19_619">
<rect width="26" height="29" fill="white" transform="translate(8 6)"/>
</clipPath>
</defs>
</svg>
