<svg width="42" height="42" viewBox="0 0 42 42" fill="none" xmlns="http://www.w3.org/2000/svg">
<mask id="mask0_19_623" style="mask-type:luminance" maskUnits="userSpaceOnUse" x="6" y="6" width="22" height="23">
<path d="M20.5904 6.00027C19.3727 6.00513 18.2086 6.10964 17.1854 6.29192C14.1717 6.82418 13.6248 7.93973 13.6248 9.99585V12.7106H20.7508V13.6147H13.6248H10.9514C8.88069 13.6147 7.06761 14.8591 6.50133 17.2263C5.84755 19.941 5.81839 21.6326 6.50133 24.4664C7.00685 26.576 8.21719 28.078 10.2879 28.078H12.7377V24.8261C12.7377 22.4735 14.772 20.4004 17.1878 20.4004H24.304C26.2848 20.4004 27.867 18.7696 27.867 16.7791V9.99585C27.867 8.06611 26.2386 6.61516 24.304 6.29192C23.0791 6.08777 21.8104 5.99541 20.5904 6.00027ZM16.7382 8.1852C17.4746 8.1852 18.0749 8.79523 18.0749 9.54623C18.0749 10.2948 17.4746 10.9 16.7382 10.9C15.9993 10.9 15.4015 10.2948 15.4015 9.54623C15.4015 8.79523 15.9993 8.1852 16.7382 8.1852Z" fill="white"/>
</mask>
<g mask="url(#mask0_19_623)">
<mask id="mask1_19_623" style="mask-type:luminance" maskUnits="userSpaceOnUse" x="5" y="5" width="23" height="24">
<path d="M27.8646 5.9955H5.81597V28.0805H27.8646V5.9955Z" fill="white"/>
</mask>
<g mask="url(#mask1_19_623)">
<rect width="22.8652" height="22.5152" transform="matrix(1 0 0 -1 5.54342 28.3568)" fill="black"/>
</g>
</g>
<mask id="mask2_19_623" style="mask-type:luminance" maskUnits="userSpaceOnUse" x="13" y="13" width="23" height="23">
<path d="M28.7541 13.6147V16.7791C28.7541 19.2314 26.6737 21.2972 24.304 21.2972H17.1878C15.2386 21.2972 13.6248 22.9645 13.6248 24.9185V31.7018C13.6248 33.6315 15.3042 34.7689 17.1878 35.3231C19.4432 35.9866 21.6063 36.1056 24.304 35.3231C26.0976 34.803 27.867 33.7579 27.867 31.7018V28.987H20.7483V28.0829H27.8645H31.4275C33.4982 28.0829 34.2687 26.6392 34.9905 24.4713C35.7342 22.2402 35.7026 20.0942 34.9905 17.2312C34.4777 15.1702 33.5006 13.6196 31.4275 13.6196H28.7541V13.6147ZM24.7512 30.7952C25.4901 30.7952 26.0879 31.4004 26.0879 32.149C26.0879 32.8999 25.4901 33.51 24.7512 33.51C24.0148 33.51 23.4145 32.8999 23.4145 32.149C23.4145 31.4004 24.0148 30.7952 24.7512 30.7952Z" fill="white"/>
</mask>
<g mask="url(#mask2_19_623)">
<mask id="mask3_19_623" style="mask-type:luminance" maskUnits="userSpaceOnUse" x="13" y="13" width="23" height="24">
<path d="M35.7342 13.6147H13.6248V36.1032H35.7342V13.6147Z" fill="white"/>
</mask>
<g mask="url(#mask3_19_623)">
<rect width="22.8652" height="22.9819" transform="matrix(1 0 0 -1 13.3523 36.3906)" fill="black"/>
</g>
</g>
</svg>
