<svg width="42" height="42" viewBox="0 0 42 42" fill="none" xmlns="http://www.w3.org/2000/svg">
<path d="M20.9565 23.7032C22.1872 23.7032 23.1848 22.7164 23.1848 21.4993C23.1848 20.2821 22.1872 19.2953 20.9565 19.2953C19.7259 19.2953 18.7283 20.2821 18.7283 21.4993C18.7283 22.7164 19.7259 23.7032 20.9565 23.7032Z" fill="black"/>
<path d="M20.9565 26.0146C27.5599 26.0146 32.913 23.993 32.913 21.4992C32.913 19.0055 27.5599 16.9839 20.9565 16.9839C14.3531 16.9839 9 19.0055 9 21.4992C9 23.993 14.3531 26.0146 20.9565 26.0146Z" stroke="black"/>
<path d="M17.0029 23.7569C20.3046 29.4132 24.7513 32.9877 26.9348 31.7408C29.1183 30.4939 28.2118 24.8978 24.9101 19.2416C21.6084 13.5853 17.1618 10.0108 14.9783 11.2577C12.7948 12.5046 13.7012 18.1007 17.0029 23.7569Z" stroke="black"/>
<path d="M17.0029 19.2416C13.7012 24.8978 12.7947 30.4939 14.9783 31.7408C17.1618 32.9877 21.6084 29.4132 24.9101 23.7569C28.2118 18.1007 29.1183 12.5046 26.9348 11.2577C24.7513 10.0108 20.3046 13.5853 17.0029 19.2416Z" stroke="black"/>
</svg>
