<svg width="42" height="42" viewBox="0 0 42 42" fill="none" xmlns="http://www.w3.org/2000/svg">
<path d="M21.5 19.9048C20.7045 19.9048 19.9168 19.7508 19.1818 19.4517C18.4469 19.1525 17.7791 18.7141 17.2166 18.1614C16.6541 17.6086 16.2079 16.9524 15.9034 16.2303C15.599 15.5081 15.4423 14.7341 15.4423 13.9524C15.4423 13.1707 15.599 12.3967 15.9034 11.6745C16.2079 10.9523 16.6541 10.2961 17.2166 9.74341C17.7791 9.19068 18.4469 8.75223 19.1818 8.4531C19.9168 8.15396 20.7045 8 21.5 8C22.2955 8 23.0832 8.15396 23.8182 8.4531C24.5531 8.75223 25.2209 9.19068 25.7834 9.74341C26.3459 10.2961 26.7922 10.9523 27.0966 11.6745C27.401 12.3967 27.5577 13.1707 27.5577 13.9524C27.5577 14.7341 27.401 15.5081 27.0966 16.2303C26.7922 16.9524 26.3459 17.6086 25.7834 18.1614C25.2209 18.7141 24.5531 19.1525 23.8182 19.4517C23.0832 19.7508 22.2955 19.9048 21.5 19.9048ZM22.9993 22.6825C27.9716 22.6825 32 26.6409 32 31.5268C32 32.3403 31.3286 33 30.5007 33H12.4993C11.6714 33 11 32.3403 11 31.5268C11 26.6409 15.0284 22.6825 20.0007 22.6825H22.9993Z" fill="black"/>
</svg>
