<svg width="42" height="42" viewBox="0 0 42 42" fill="none" xmlns="http://www.w3.org/2000/svg">
<path d="M21.5 8C22.0469 8 22.5596 8.28809 22.8379 8.75684L27.5254 16.5693C27.8135 17.0527 27.8232 17.6533 27.5449 18.1416C27.2666 18.6299 26.749 18.9375 26.1875 18.9375H16.8125C16.251 18.9375 15.7285 18.6348 15.4551 18.1465C15.1816 17.6582 15.1865 17.0576 15.4746 16.5742L20.1621 8.76172C20.4404 8.28809 20.9531 8 21.5 8ZM15.25 21.2812C15.9682 21.2812 16.6793 21.4227 17.3428 21.6975C18.0063 21.9724 18.6092 22.3752 19.117 22.883C19.6248 23.3908 20.0276 23.9937 20.3025 24.6572C20.5773 25.3207 20.7188 26.0318 20.7188 26.75C20.7188 27.4682 20.5773 28.1793 20.3025 28.8428C20.0276 29.5063 19.6248 30.1092 19.117 30.617C18.6092 31.1248 18.0063 31.5276 17.3428 31.8025C16.6793 32.0773 15.9682 32.2188 15.25 32.2188C14.5318 32.2188 13.8207 32.0773 13.1572 31.8025C12.4937 31.5276 11.8908 31.1248 11.383 30.617C10.8752 30.1092 10.4724 29.5063 10.1975 28.8428C9.9227 28.1793 9.78125 27.4682 9.78125 26.75C9.78125 26.0318 9.9227 25.3207 10.1975 24.6572C10.4724 23.9937 10.8752 23.3908 11.383 22.883C11.8908 22.3752 12.4937 21.9724 13.1572 21.6975C13.8207 21.4227 14.5318 21.2812 15.25 21.2812ZM25.0156 22.0625H30.4844C31.5635 22.0625 32.4375 22.9365 32.4375 24.0156V29.4844C32.4375 30.5635 31.5635 31.4375 30.4844 31.4375H25.0156C23.9365 31.4375 23.0625 30.5635 23.0625 29.4844V24.0156C23.0625 22.9365 23.9365 22.0625 25.0156 22.0625Z" fill="black"/>
</svg>
